<svg width="30" height="31" viewBox="0 0 30 31" fill="none" xmlns="http://www.w3.org/2000/svg">
<path fill-rule="evenodd" clip-rule="evenodd" d="M14.9935 1.00781C9.32192 1.00781 4.69091 5.64726 4.69091 11.3179V15.0696C4.69091 17.9532 3.56129 20.3906 3.10475 21.3036C2.18792 23.141 3.57347 25.3722 5.62462 25.3722H10.4037C10.8387 27.5077 12.738 29.1276 14.9973 29.1276C17.2565 29.1276 19.1558 27.5077 19.5908 25.3722H24.3699C26.421 25.3722 27.7972 23.1373 26.8823 21.3036C26.4285 20.3943 25.3055 17.9541 25.3055 15.0696V11.3179C25.3055 5.64632 20.6651 1.00781 14.9935 1.00781ZM14.9935 2.87522C19.6433 2.87522 23.4362 6.66721 23.4362 11.3179V15.0696C23.4362 18.435 24.713 21.1555 25.208 22.1473C25.5361 22.8054 25.1039 23.5048 24.3699 23.5048H5.62462C4.88497 23.5048 4.45093 22.8082 4.78091 22.1483C5.27495 21.1574 6.55832 18.436 6.55832 15.0696V11.3179C6.55832 6.66627 10.3428 2.87522 14.9935 2.87522ZM14.9935 4.75012C11.3749 4.75012 8.43322 7.6984 8.43322 11.3179C8.43322 11.5665 8.53199 11.805 8.70779 11.9808C8.8836 12.1566 9.12204 12.2554 9.37067 12.2554C9.6193 12.2554 9.85774 12.1566 10.0335 11.9808C10.2094 11.805 10.3081 11.5665 10.3081 11.3179C10.3038 10.7011 10.4219 10.0896 10.6558 9.5189C10.8896 8.94816 11.2345 8.42954 11.6704 7.99315C12.1063 7.55675 12.6245 7.21126 13.1949 6.97673C13.7654 6.74219 14.3767 6.62328 14.9935 6.6269C15.2424 6.6269 15.4811 6.52803 15.657 6.35205C15.833 6.17607 15.9319 5.93738 15.9319 5.68851C15.9319 5.43963 15.833 5.20095 15.657 5.02497C15.4811 4.84898 15.2424 4.75012 14.9935 4.75012ZM9.37255 14.1284C9.12392 14.1284 8.88547 14.2271 8.70967 14.403C8.53386 14.5788 8.43509 14.8172 8.43509 15.0658C8.43509 15.3145 8.53386 15.5529 8.70967 15.7287C8.88547 15.9045 9.12392 16.0033 9.37255 16.0033C9.62117 16.0033 9.85962 15.9045 10.0354 15.7287C10.2112 15.5529 10.31 15.3145 10.31 15.0658C10.31 14.8172 10.2112 14.5788 10.0354 14.403C9.85962 14.2271 9.62117 14.1284 9.37255 14.1284ZM12.3536 25.3722H17.6409C17.4515 25.9223 17.0948 26.3993 16.6208 26.7366C16.1467 27.0738 15.579 27.2543 14.9973 27.2527C14.4155 27.2543 13.8478 27.0738 13.3738 26.7366C12.8997 26.3993 12.543 25.9223 12.3536 25.3722Z" fill="white"/>
</svg>
