<svg width="36" height="37" viewBox="0 0 36 37" fill="none" xmlns="http://www.w3.org/2000/svg">
<path d="M11.7871 7.20107C10.743 7.59688 9.79638 8.21182 8.97108 9.03066C7.05243 10.9555 6.2286 13.7018 6.76737 16.3766C6.82479 16.6616 7.07528 16.8582 7.35507 16.8582C7.39433 16.8582 7.43417 16.8544 7.47401 16.8465C7.79892 16.7809 8.00927 16.4645 7.94393 16.1398C7.48427 13.8588 8.18593 11.518 9.81864 9.88027C10.5215 9.18271 11.3268 8.65889 12.2125 8.32314C12.5225 8.20566 12.6783 7.85938 12.5608 7.54941C12.4436 7.23945 12.0968 7.08359 11.7871 7.20107ZM14.6277 6.66406C14.5598 6.66406 14.4809 6.66729 14.4127 6.67871C14.086 6.73467 13.8558 7.0458 13.9114 7.37246C13.9615 7.66514 14.207 7.87314 14.4924 7.87314C14.5255 7.87314 14.5592 7.87021 14.5932 7.86436L14.6277 7.86406C14.9591 7.86406 15.2277 7.59541 15.2277 7.26406C15.2277 6.93271 14.9591 6.66406 14.6277 6.66406Z" fill="white"/>
<path d="M24.5326 19.951C25.3666 18.373 25.8166 16.609 25.8166 14.7671C25.8166 11.8031 24.6585 9.01305 22.5646 6.91305C18.2326 2.58107 11.1826 2.58107 6.85055 6.91305C2.51857 11.2451 2.51857 18.2951 6.85055 22.6271C9.01658 24.793 11.8606 25.873 14.7046 25.873C16.4926 25.873 18.2746 25.4471 19.8945 24.5951L24.8746 29.5751L29.5126 24.9311L24.5326 19.951ZM7.70258 21.7751C3.83857 17.9111 3.83857 11.629 7.70258 7.76504C9.63456 5.83306 12.1666 4.86707 14.7046 4.86707C17.2426 4.86707 19.7805 5.83306 21.7126 7.76504C23.5846 9.63107 24.6166 12.121 24.6166 14.7671C24.6166 17.4191 23.5846 19.909 21.7126 21.7751C17.8486 25.6391 11.5666 25.6391 7.70258 21.7751ZM31.4386 26.857L30.3585 25.7771L25.7206 30.421L26.8005 31.501C27.4365 32.137 28.2766 32.4611 29.1166 32.4611C29.9566 32.4611 30.7966 32.137 31.4386 31.501C32.7166 30.223 32.7166 28.135 31.4386 26.857Z" fill="white"/>
</svg>
