<svg width="30" height="30" viewBox="0 0 30 30" fill="none" xmlns="http://www.w3.org/2000/svg">
<circle cx="14.8826" cy="14.8826" r="14.8826" fill="#148437"/>
<path d="M8.50819 7.33305C8.52168 7.26502 8.54626 7.19968 8.58095 7.13963L10.6716 3.55055C10.8117 3.3139 11.0401 3.14263 11.3066 3.0744C11.573 3.00617 11.8556 3.04658 12.0923 3.18673C12.3289 3.32688 12.5002 3.5553 12.5684 3.82173C12.6366 4.08817 12.5962 4.37079 12.4561 4.60744L11.4069 6.39864C13.0642 5.7805 14.8621 5.64196 16.5945 5.99891C18.3269 6.35586 19.9236 7.19385 21.2015 8.41677C22.4794 9.6397 23.3867 11.198 23.8195 12.9131C24.2522 14.6281 24.1929 16.4303 23.6482 18.1132C23.5608 18.3687 23.3757 18.5791 23.1335 18.6984C22.8913 18.8178 22.6116 18.8363 22.3558 18.7498C22.2279 18.7074 22.1096 18.64 22.0078 18.5516C21.906 18.4632 21.8227 18.3555 21.7628 18.2347C21.7029 18.1139 21.6675 17.9824 21.6587 17.8479C21.6499 17.7134 21.6678 17.5784 21.7114 17.4508C22.1787 16.0697 22.2173 14.5796 21.8221 13.1761C21.4269 11.7727 20.6163 10.5216 19.497 9.58735C18.5255 8.73965 17.3473 8.16367 16.0816 7.91773C14.8159 7.67179 13.5078 7.76462 12.2895 8.18682L13.7437 9.0796C13.8591 9.15103 13.9594 9.24449 14.0387 9.35464C14.118 9.4648 14.1748 9.5895 14.2059 9.72162C14.237 9.85374 14.2418 9.99069 14.22 10.1247C14.1982 10.2586 14.1502 10.387 14.0788 10.5024C14.0073 10.6178 13.9139 10.7181 13.8037 10.7974C13.6936 10.8767 13.5689 10.9335 13.4367 10.9646C13.3046 10.9957 13.1677 11.0005 13.0337 10.9787C12.8997 10.9569 12.7714 10.9089 12.6559 10.8374L8.90053 8.54908L8.77699 8.44229C8.68643 8.36589 8.61097 8.27321 8.55452 8.16904C8.53551 8.13385 8.52293 8.09557 8.51735 8.05597C8.47978 7.98753 8.45249 7.91393 8.43634 7.83755L8.44131 7.70694C8.43368 7.63484 8.43324 7.56215 8.44 7.48996C8.45501 7.43463 8.47798 7.38178 8.50819 7.33305ZM7.41309 11.3779C7.54136 11.421 7.65978 11.4892 7.76147 11.5784C7.86316 11.6677 7.94609 11.7762 8.00543 11.8978C8.06478 12.0194 8.09935 12.1516 8.10714 12.2867C8.11493 12.4218 8.09579 12.5571 8.05082 12.6847C7.59569 14.0576 7.56304 15.5354 7.95709 16.9271C8.35114 18.3187 9.15375 19.5601 10.2611 20.4906C11.2326 21.3383 12.4108 21.9143 13.6765 22.1602C14.9421 22.4061 16.2503 22.3133 17.4685 21.8911L16.0143 20.9983L15.8908 20.8915C15.6719 20.7309 15.5257 20.4899 15.4845 20.2215C15.4432 19.9531 15.5103 19.6793 15.6709 19.4604C15.8316 19.2414 16.0726 19.0953 16.341 19.054C16.6094 19.0128 16.8832 19.0799 17.1021 19.2405L20.8442 21.5443C20.9418 21.6016 21.0282 21.6762 21.099 21.7645L21.1607 21.8179C21.228 21.9167 21.2798 22.0252 21.3144 22.1396C21.3317 22.2248 21.338 22.3119 21.3332 22.3987L21.336 22.536C21.3196 22.6032 21.2952 22.6681 21.2632 22.7294C21.2562 22.7923 21.2359 22.8529 21.2038 22.9074L19.1132 26.4965C19.0493 26.6206 18.9606 26.7302 18.8527 26.8186C18.7447 26.9071 18.6198 26.9724 18.4856 27.0107C18.3514 27.0489 18.2108 27.0592 18.0724 27.041C17.9341 27.0227 17.8009 26.9763 17.6812 26.9046L17.5422 26.7844C17.3568 26.6294 17.2325 26.4135 17.1913 26.1754C17.1501 25.9372 17.1948 25.6921 17.3174 25.4838L18.3666 23.6926C16.7098 24.3116 14.912 24.4512 13.1795 24.0952C11.447 23.7393 9.84993 22.9023 8.57136 21.6802C7.29279 20.4581 6.38452 18.9004 5.95071 17.1858C5.5169 15.4711 5.57511 13.6689 6.11867 11.9858C6.21176 11.7351 6.39954 11.531 6.64161 11.4173C6.88369 11.3036 7.16071 11.2895 7.41309 11.3779Z" fill="#DDDDDD"/>
</svg>
