<svg xmlns="http://www.w3.org/2000/svg" viewBox="0 0 61 36" fill="none">
  <!-- Using purple fills to match the branding in the image -->
  <path d="M9 14H29.3719V17.8069C29.3719 19.8525 27.7136 21.5109 25.6679 21.5109H12.704C10.6583 21.5109 9 19.8525 9 17.8069V14Z" fill="#5E35B1"/>
  <path d="M15.6875 21.5156H22.6839V30.5698C22.6839 32.5018 21.1177 34.068 19.1857 34.068C17.2537 34.068 15.6875 32.5018 15.6875 30.5698V21.5156Z" fill="#5E35B1"/>
  <rect x="9" y="6.39062" width="20.3719" height="6.79063" fill="#5E35B1"/>
  <path d="M9 6.48191V5.24725C10.7325 6.00251 11.8289 6.25189 13.9386 6.37902C18.8258 6.12757 20.3177 3.91621 24.2275 4.07016C25.859 4.05248 26.9309 4.34272 29.3719 5.6588V6.48191H9Z" fill="#5E35B1"/>
  <path d="M60 15.2656L55 20.2656L50 15.2656" stroke="#7E57C2" stroke-width="2.5" stroke-linecap="round" stroke-linejoin="round"/>
</svg>