<svg width="62" height="39" viewBox="0 0 62 39" fill="none" xmlns="http://www.w3.org/2000/svg">
<g filter="url(#filter0_dd_542_15479)">
<path d="M2.53259 11.7416C3.75056 5.86959 7.49816 2.59907 13.3437 1.61107C17.665 0.880861 21.9878 0.871614 26.3018 1.63157C32.3207 2.69178 35.939 6.15303 37.0917 12.1138C37.9822 16.7205 37.9962 21.3764 37.0777 25.9787C35.8455 31.8101 32.0012 35.4096 26.1772 36.394C21.8559 37.1241 17.5331 37.1334 13.2191 36.3735C7.20024 35.3132 3.56586 31.6791 2.41326 25.7184C1.47729 21.0813 1.56735 16.3961 2.53259 11.7415V11.7416Z" fill="#553C9A"/>
</g>
<path d="M2.53259 11.7416C3.75056 5.86959 7.49816 2.59907 13.3437 1.61107C17.665 0.880861 21.9878 0.871614 26.3018 1.63157C32.3207 2.69178 35.939 6.15303 37.0917 12.1138C37.9822 16.7205 37.9962 21.3764 37.0777 25.9787C35.8455 31.8101 32.0012 35.4096 26.1772 36.394C21.8559 37.1241 17.5331 37.1334 13.2191 36.3735C7.20024 35.3132 3.56586 31.6791 2.41326 25.7184C1.47729 21.0813 1.56735 16.3961 2.53259 11.7415V11.7416Z" fill="#553C9A"/>
<path d="M2.53259 11.7416C3.75056 5.86959 7.49816 2.59907 13.3437 1.61107C17.665 0.880861 21.9878 0.871614 26.3018 1.63157C32.3207 2.69178 35.939 6.15303 37.0917 12.1138C37.9822 16.7205 37.9962 21.3764 37.0777 25.9787C35.8455 31.8101 32.0012 35.4096 26.1772 36.394C21.8559 37.1241 17.5331 37.1334 13.2191 36.3735C7.20024 35.3132 3.56586 31.6791 2.41326 25.7184C1.47729 21.0813 1.56735 16.3961 2.53259 11.7415V11.7416Z" fill="#553C9A"/>
<g filter="url(#filter1_f_542_15479)">
<path fill-rule="evenodd" clip-rule="evenodd" d="M11.0729 15.3582C11.6849 12.4076 13.568 10.7643 16.5053 10.2678C18.6766 9.9009 20.8488 9.89631 23.0164 10.2781C26.0408 10.8108 27.8589 12.5501 28.4381 15.5452C28.8856 17.8601 28.8926 20.1995 28.4311 22.512C27.8119 25.4422 25.8802 27.2509 22.9538 27.7455C20.7825 28.1124 18.6104 28.117 16.4427 27.7352C13.4183 27.2024 11.5922 25.3764 11.0129 22.3813C10.5426 20.0512 10.5879 17.6969 11.0729 15.3582Z" fill="#553C9A"/>
</g>
<path fill-rule="evenodd" clip-rule="evenodd" d="M27.9803 20.9497L27.9735 20.8548V19.2188H26.4993V20.4675C26.3769 21.0537 26.0027 21.1687 24.9514 21.4099C20.7018 22.3851 20.4443 22.8687 21.3933 27.1392C21.6747 28.4056 20.9108 29.3594 19.8711 29.3705C18.8314 29.3594 18.0675 28.4056 18.349 27.1392C19.298 22.8687 18.7562 22.2239 14.4876 21.3355C13.6754 21.1664 13.241 20.9097 13.0441 20.3325V10.4273H26.4993V15.3323H15.4831V16.8065H26.4993C27.3135 16.8065 27.9735 16.1465 27.9735 15.3323V10.4273C27.9735 9.61313 27.3135 8.95312 26.4993 8.95312H13.0441C12.2299 8.95312 11.5699 9.61313 11.5699 10.4273V20.9856C11.5446 21.35 11.6583 21.6286 11.8463 21.8429C12.1107 22.2115 12.5398 22.4532 13.0265 22.4589C13.9147 22.7101 14.6829 22.8082 15.7027 23.1507C16.9574 23.5721 17.4243 23.8022 17.1939 25.4219C17.1208 25.9367 16.9965 26.4439 16.8758 26.9497C16.5006 28.52 16.7957 29.4251 17.9617 30.2348C18.5222 30.624 19.1917 30.8316 19.8711 30.8617C20.5506 30.8316 21.2201 30.624 21.7805 30.2348C22.9466 29.4251 23.2416 28.52 22.8666 26.9497C22.7457 26.4439 22.6215 25.9367 22.5483 25.4219C22.318 23.8022 22.7849 23.5721 24.0395 23.1507C25.0617 22.8074 25.8935 22.6955 26.7368 22.4538C27.0841 22.4237 27.3928 22.2624 27.6155 22.0201C27.8672 21.7788 28.0138 21.4346 27.9803 20.9497Z" fill="white"/>
<path d="M61 16.2031L56 21.2031L51 16.2031" stroke="black" stroke-linecap="round" stroke-linejoin="round"/>
<defs>
<filter id="filter0_dd_542_15479" x="0.949314" y="0.548001" width="37.6229" height="37.4998" filterUnits="userSpaceOnUse" color-interpolation-filters="sRGB">
<feFlood flood-opacity="0" result="BackgroundImageFix"/>
<feColorMatrix in="SourceAlpha" type="matrix" values="0 0 0 0 0 0 0 0 0 0 0 0 0 0 0 0 0 0 127 0" result="hardAlpha"/>
<feOffset dy="0.367499"/>
<feGaussianBlur stdDeviation="0.294"/>
<feColorMatrix type="matrix" values="0 0 0 0 0 0 0 0 0 0 0 0 0 0 0 0 0 0 0.078125 0"/>
<feBlend mode="normal" in2="BackgroundImageFix" result="effect1_dropShadow_542_15479"/>
<feColorMatrix in="SourceAlpha" type="matrix" values="0 0 0 0 0 0 0 0 0 0 0 0 0 0 0 0 0 0 127 0" result="hardAlpha"/>
<feOffset dy="0.294"/>
<feGaussianBlur stdDeviation="0.404249"/>
<feColorMatrix type="matrix" values="0 0 0 0 0 0 0 0 0 0 0 0 0 0 0 0 0 0 0.210824 0"/>
<feBlend mode="normal" in2="effect1_dropShadow_542_15479" result="effect2_dropShadow_542_15479"/>
<feBlend mode="normal" in="SourceGraphic" in2="effect2_dropShadow_542_15479" result="shape"/>
</filter>
<filter id="filter1_f_542_15479" x="7.1115" y="6.42009" width="25.236" height="25.1754" filterUnits="userSpaceOnUse" color-interpolation-filters="sRGB">
<feFlood flood-opacity="0" result="BackgroundImageFix"/>
<feBlend mode="normal" in="SourceGraphic" in2="BackgroundImageFix" result="shape"/>
<feGaussianBlur stdDeviation="1.78605" result="effect1_foregroundBlur_542_15479"/>
</filter>
</defs>
</svg>
