<svg width="23" height="25" viewBox="0 0 23 25" fill="none" xmlns="http://www.w3.org/2000/svg">
<path d="M13.9067 4.33067V20.5112H2.13901V4.33067H13.9067ZM15.8679 2.36939H0.177734V22.9628H15.8679V2.36939ZM3.60997 6.29195H12.4357V8.25322H3.60997V6.29195ZM3.60997 9.72418H12.4357V11.6855H3.60997V9.72418ZM3.60997 13.1564H12.4357V15.1177H3.60997V13.1564ZM3.60997 16.5886H12.4357V18.5499H3.60997V16.5886ZM18.8099 6.29195H22.7324V20.0209H18.8099V6.29195ZM20.7741 0.898438C19.6983 0.898438 18.8099 1.76385 18.8099 2.82882V4.82099H22.7324V2.82882C22.7324 1.76385 21.8454 0.898438 20.7741 0.898438ZM18.7795 21.4918L20.7608 24.6235L22.7324 21.4918H18.7795Z" fill="#939393"/>
</svg>
