<svg width="52" height="165" viewBox="0 0 52 165" fill="none" xmlns="http://www.w3.org/2000/svg">
<g filter="url(#filter0_d_967_21254)">
<path d="M16.5391 18.6233C16.5391 16.0872 18.5947 14.0312 21.1308 14.0312H30.9062C33.4422 14.0312 35.4986 16.0872 35.4986 18.6233V30.3166C35.4986 30.3166 30.7587 31.9998 26.0188 31.9998C21.2789 31.9998 16.5391 30.3166 16.5391 30.3166V18.6233Z" fill="url(#paint0_linear_967_21254)"/>
<path d="M16 35.88L16.8938 35.1641C16.8938 35.1641 16.9199 35.9389 16.9298 36.1178" fill="url(#paint1_linear_967_21254)"/>
<path d="M36.0356 35.8823L35.1094 35.1406L35.5009 36.8402" fill="url(#paint2_linear_967_21254)"/>
<path d="M16.5391 30.2422C16.5391 30.2422 21.2789 31.9949 26.0188 31.9949C30.7587 31.9949 35.4986 30.3048 35.4986 30.3048L35.5494 36.7086C35.5494 36.7086 30.7587 38.1896 26.0188 38.1896C21.2789 38.1896 16.5391 36.6131 16.5391 36.6131V30.2422Z" fill="url(#paint3_linear_967_21254)"/>
<path d="M16 35.875C16 35.875 21.0073 37.1589 26.0145 37.1589C31.0218 37.1589 36.029 35.875 36.029 35.875V145.35C36.029 145.35 31.0218 147.588 26.0145 147.588C21.0073 147.588 16 145.35 16 145.35V35.875Z" fill="url(#paint4_linear_967_21254)"/>
</g>
<defs>
<filter id="filter0_d_967_21254" x="0.668934" y="0.569826" width="50.7012" height="164.217" filterUnits="userSpaceOnUse" color-interpolation-filters="sRGB">
<feFlood flood-opacity="0" result="BackgroundImageFix"/>
<feColorMatrix in="SourceAlpha" type="matrix" values="0 0 0 0 0 0 0 0 0 0 0 0 0 0 0 0 0 0 127 0" result="hardAlpha"/>
<feMorphology radius="3.73928" operator="dilate" in="SourceAlpha" result="effect1_dropShadow_967_21254"/>
<feOffset dy="1.86964"/>
<feGaussianBlur stdDeviation="5.79589"/>
<feComposite in2="hardAlpha" operator="out"/>
<feColorMatrix type="matrix" values="0 0 0 0 0 0 0 0 0 0 0 0 0 0 0 0 0 0 0.21 0"/>
<feBlend mode="normal" in2="BackgroundImageFix" result="effect1_dropShadow_967_21254"/>
<feBlend mode="normal" in="SourceGraphic" in2="effect1_dropShadow_967_21254" result="shape"/>
</filter>
<linearGradient id="paint0_linear_967_21254" x1="16.5391" y1="22.1739" x2="35.4985" y2="22.1739" gradientUnits="userSpaceOnUse">
<stop offset="0.0208333" stop-color="#E79B97"/>
<stop offset="0.114583" stop-color="#FFB7B3"/>
<stop offset="0.802083" stop-color="#9F0C0C" stop-opacity="0.754"/>
<stop offset="1" stop-color="#C28080"/>
</linearGradient>
<linearGradient id="paint1_linear_967_21254" x1="16.9248" y1="35.5221" x2="15.9999" y2="35.5221" gradientUnits="userSpaceOnUse">
<stop stop-color="#515252"/>
<stop offset="0.13125" stop-color="#888888"/>
<stop offset="0.860417" stop-color="#141414"/>
<stop offset="1" stop-color="#5A5A5A"/>
</linearGradient>
<linearGradient id="paint2_linear_967_21254" x1="35.0776" y1="35.5115" x2="36.0358" y2="35.5115" gradientUnits="userSpaceOnUse">
<stop stop-color="#515252"/>
<stop offset="0.35625" stop-color="#7F7F7F"/>
<stop offset="0.860417" stop-color="#141414"/>
<stop offset="1" stop-color="#5A5A5A"/>
</linearGradient>
<linearGradient id="paint3_linear_967_21254" x1="16.5391" y1="33.0542" x2="35.4985" y2="33.0542" gradientUnits="userSpaceOnUse">
<stop offset="0.0208333" stop-color="white"/>
<stop offset="0.208333" stop-color="#D9D9D9"/>
<stop offset="0.822917" stop-color="#969696" stop-opacity="0.754"/>
<stop offset="1" stop-color="#E9E9E9"/>
</linearGradient>
<linearGradient id="paint4_linear_967_21254" x1="16" y1="59.0573" x2="36.0294" y2="59.0573" gradientUnits="userSpaceOnUse">
<stop stop-color="#E8E9EA"/>
<stop offset="0.13125" stop-color="#F9F9F9"/>
<stop offset="0.802083" stop-color="#B3B3B3"/>
<stop offset="1" stop-color="#D3D3D3"/>
</linearGradient>
</defs>
</svg>
