<svg width="62" height="65" viewBox="0 0 62 65" fill="none" xmlns="http://www.w3.org/2000/svg">
<g filter="url(#filter0_d_967_28260)">
<rect x="7" y="55" width="50" height="48" rx="4.58198" transform="rotate(-90 7 55)" fill="#F8F8F8" shape-rendering="crispEdges"/>
<path d="M21.6816 42C21.3833 42 21.0971 41.8815 20.8861 41.6705C20.6752 41.4595 20.5566 41.1734 20.5566 40.875V34.125C20.5566 33.8266 20.6752 33.5405 20.8861 33.3295C21.0971 33.1185 21.3833 33 21.6816 33C21.8294 33 21.9757 33.0291 22.1122 33.0856C22.2487 33.1422 22.3727 33.225 22.4771 33.3295C22.5816 33.434 22.6645 33.558 22.721 33.6945C22.7775 33.831 22.8066 33.9773 22.8066 34.125V38.1588L29.3066 31.6588C29.4111 31.5542 29.5351 31.4713 29.6717 31.4148C29.8082 31.3582 29.9545 31.3291 30.1023 31.3291C30.25 31.3291 30.3964 31.3582 30.5329 31.4148C30.6694 31.4713 30.7934 31.5542 30.8979 31.6588C31.0024 31.7632 31.0853 31.8873 31.1419 32.0238C31.1984 32.1603 31.2275 32.3066 31.2275 32.4544C31.2275 32.6021 31.1984 32.7485 31.1419 32.885C31.0853 33.0215 31.0024 33.1455 30.8979 33.25L24.3979 39.75H28.4316C28.73 39.75 29.0162 39.8685 29.2271 40.0795C29.4381 40.2905 29.5566 40.5766 29.5566 40.875C29.5566 41.1734 29.4381 41.4595 29.2271 41.6705C29.0162 41.8815 28.73 42 28.4316 42H21.6816ZM34.1016 28.3413C33.9971 28.2368 33.9142 28.1127 33.8577 27.9762C33.8011 27.8397 33.772 27.6934 33.772 27.5456C33.772 27.3979 33.8011 27.2515 33.8577 27.115C33.9142 26.9785 33.9971 26.8545 34.1016 26.75L40.6016 20.25H36.5679C36.2695 20.25 35.9834 20.1315 35.7724 19.9205C35.5614 19.7095 35.4429 19.4234 35.4429 19.125C35.4429 18.8266 35.5614 18.5405 35.7724 18.3295C35.9834 18.1185 36.2695 18 36.5679 18H43.3179C43.6163 18 43.9024 18.1185 44.1134 18.3295C44.3244 18.5405 44.4429 18.8266 44.4429 19.125V25.875C44.4429 26.0227 44.4138 26.169 44.3573 26.3055C44.3007 26.442 44.2179 26.566 44.1134 26.6705C44.0089 26.775 43.8849 26.8578 43.7484 26.9144C43.6119 26.9709 43.4656 27 43.3179 27C43.1702 27 43.0239 26.9709 42.8874 26.9144C42.7509 26.8578 42.6269 26.775 42.5224 26.6705C42.4179 26.566 42.3351 26.442 42.2785 26.3055C42.222 26.169 42.1929 26.0227 42.1929 25.875V21.8412L35.6929 28.3413C35.4821 28.5523 35.1962 28.671 34.8979 28.6713C34.75 28.6713 34.6035 28.6422 34.4669 28.5855C34.3303 28.5289 34.2062 28.4459 34.1016 28.3413Z" fill="#553C9A"/>
</g>
<defs>
<filter id="filter0_d_967_28260" x="0.127025" y="0.418017" width="61.7459" height="63.7459" filterUnits="userSpaceOnUse" color-interpolation-filters="sRGB">
<feFlood flood-opacity="0" result="BackgroundImageFix"/>
<feColorMatrix in="SourceAlpha" type="matrix" values="0 0 0 0 0 0 0 0 0 0 0 0 0 0 0 0 0 0 127 0" result="hardAlpha"/>
<feOffset dy="2.29099"/>
<feGaussianBlur stdDeviation="3.43649"/>
<feComposite in2="hardAlpha" operator="out"/>
<feColorMatrix type="matrix" values="0 0 0 0 0 0 0 0 0 0 0 0 0 0 0 0 0 0 0.15 0"/>
<feBlend mode="normal" in2="BackgroundImageFix" result="effect1_dropShadow_967_28260"/>
<feBlend mode="normal" in="SourceGraphic" in2="effect1_dropShadow_967_28260" result="shape"/>
</filter>
</defs>
</svg>
