<svg width="25" height="24" viewBox="0 0 25 24" fill="none" xmlns="http://www.w3.org/2000/svg">
<path d="M1.68164 24C1.38327 24 1.09712 23.8815 0.886145 23.6705C0.675167 23.4595 0.556641 23.1734 0.556641 22.875V16.125C0.556641 15.8266 0.675167 15.5405 0.886145 15.3295C1.09712 15.1185 1.38327 15 1.68164 15C1.82938 15 1.97567 15.0291 2.11216 15.0856C2.24865 15.1422 2.37267 15.225 2.47714 15.3295C2.5816 15.434 2.66447 15.558 2.721 15.6945C2.77754 15.831 2.80664 15.9773 2.80664 16.125V20.1588L9.30664 13.6588C9.41111 13.5542 9.53515 13.4713 9.67166 13.4148C9.80818 13.3582 9.9545 13.3291 10.1023 13.3291C10.25 13.3291 10.3964 13.3582 10.5329 13.4148C10.6694 13.4713 10.7934 13.5542 10.8979 13.6588C11.0024 13.7632 11.0853 13.8873 11.1419 14.0238C11.1984 14.1603 11.2275 14.3066 11.2275 14.4544C11.2275 14.6021 11.1984 14.7485 11.1419 14.885C11.0853 15.0215 11.0024 15.1455 10.8979 15.25L4.39789 21.75H8.43164C8.73001 21.75 9.01616 21.8685 9.22714 22.0795C9.43811 22.2905 9.55664 22.5766 9.55664 22.875C9.55664 23.1734 9.43811 23.4595 9.22714 23.6705C9.01616 23.8815 8.73001 24 8.43164 24H1.68164ZM14.1016 10.3413C13.9971 10.2368 13.9142 10.1127 13.8577 9.97623C13.8011 9.83971 13.772 9.69339 13.772 9.54562C13.772 9.39786 13.8011 9.25154 13.8577 9.11502C13.9142 8.97851 13.9971 8.85447 14.1016 8.75L20.6016 2.25H16.5679C16.2695 2.25 15.9834 2.13147 15.7724 1.9205C15.5614 1.70952 15.4429 1.42337 15.4429 1.125C15.4429 0.826631 15.5614 0.540483 15.7724 0.329505C15.9834 0.118526 16.2695 0 16.5679 0H23.3179C23.6163 0 23.9024 0.118526 24.1134 0.329505C24.3244 0.540483 24.4429 0.826631 24.4429 1.125V7.875C24.4429 8.02274 24.4138 8.16903 24.3573 8.30552C24.3007 8.44201 24.2179 8.56603 24.1134 8.6705C24.0089 8.77496 23.8849 8.85783 23.7484 8.91436C23.6119 8.9709 23.4656 9 23.3179 9C23.1702 9 23.0239 8.9709 22.8874 8.91436C22.7509 8.85783 22.6269 8.77496 22.5224 8.6705C22.4179 8.56603 22.3351 8.44201 22.2785 8.30552C22.222 8.16903 22.1929 8.02274 22.1929 7.875V3.84125L15.6929 10.3413C15.4821 10.5523 15.1962 10.671 14.8979 10.6713C14.75 10.6713 14.6035 10.6422 14.4669 10.5855C14.3303 10.5289 14.2062 10.4459 14.1016 10.3413Z" fill="#553C9A"/>
</svg>
