<svg width="128" height="126" viewBox="0 0 128 126" fill="none" xmlns="http://www.w3.org/2000/svg">
<path d="M111.144 80.562L107.026 36.5343C106.776 33.8888 105.511 31.4385 103.492 29.6862C101.472 27.9339 98.8516 27.0125 96.1671 27.1112C93.4826 27.21 90.9382 28.3212 89.056 30.217C87.1738 32.1128 86.0967 34.6492 86.0457 37.3057L85.7202 43.4127C78.4165 31.6414 63.5412 7.7347 63.3636 7.44908C62.6346 6.25589 61.6707 5.21968 60.5291 4.40195C59.3875 3.58422 58.0914 3.00163 56.7179 2.68874C55.3783 2.3762 53.9888 2.33286 52.632 2.56132C51.2751 2.78977 49.9784 3.28536 48.8188 4.01869C46.7931 5.29723 45.2679 7.21982 44.4941 9.47002L41.8595 5.20436C41.1306 4.01127 40.1668 2.97512 39.0254 2.1574C37.884 1.33968 36.5881 0.757028 35.2147 0.444022C33.8746 0.131065 32.4847 0.0875241 31.1272 0.315982C29.7698 0.54444 28.4727 1.04024 27.3127 1.77397C24.946 3.29943 23.2743 5.67769 22.6527 8.40319C22.0312 11.1287 22.5089 13.9865 23.9843 16.3691L25.4857 18.7993C23.0972 18.4976 20.6774 19.035 18.6485 20.3177C16.2819 21.8432 14.6101 24.2214 13.9885 26.9469C13.367 29.6724 13.8447 32.5302 15.3201 34.9128L20.4555 43.2262C18.0668 42.9215 15.646 43.4591 13.6183 44.7446C11.2513 46.2698 9.57914 48.6479 8.95723 51.3734C8.33532 54.0989 8.81272 56.9569 10.2879 59.3397L37.9387 104.131C45.5917 116.518 59.8338 125.808 74.8262 125.808C80.7269 125.807 86.5335 124.345 91.716 121.555C91.7576 121.532 91.7993 121.509 91.84 121.483L95.0512 119.463C103.015 114.453 107.739 108.784 110.367 101.087C112.291 95.4565 112.034 90.3241 111.572 85.126C111.354 82.6536 111.144 80.562 111.144 80.562ZM106.607 99.8311C104.288 106.62 100.068 111.652 92.9207 116.15L89.7719 118.13C71.5981 127.76 50.8749 117.543 41.3256 102.083L13.6768 57.2933C12.7391 55.79 12.4309 53.9843 12.8178 52.2598C13.2047 50.5354 14.2562 49.0281 15.7488 48.0582C17.2348 47.1674 19.0164 46.8935 20.7056 47.2961C22.3948 47.6987 23.8547 48.7453 24.7673 50.2077L42.3546 78.6814C42.6351 79.1191 43.0766 79.4318 43.5858 79.5534C44.095 79.675 44.6321 79.596 45.0836 79.3332C45.306 79.1987 45.4995 79.0222 45.6529 78.8137C45.8063 78.6053 45.9168 78.369 45.9779 78.1184C46.0389 77.8677 46.0495 77.6076 46.009 77.3529C45.9684 77.0982 45.8775 76.8539 45.7415 76.634L18.707 32.8654C17.7689 31.3622 17.4605 29.5565 17.8472 27.832C18.234 26.1075 19.2854 24.6002 20.778 23.6303C22.2652 22.7373 24.0493 22.463 25.7403 22.8672C27.4314 23.2715 28.8918 24.3215 29.8024 25.7877L56.8419 69.5632C57.1232 69.9998 57.5646 70.3118 58.0734 70.4335C58.5822 70.5552 59.1189 70.4772 59.5709 70.2159C59.7933 70.0814 59.9867 69.9049 60.1402 69.6965C60.2936 69.488 60.404 69.2517 60.4651 69.0011C60.5262 68.7504 60.5368 68.4903 60.4962 68.2356C60.4557 67.981 60.3648 67.7367 60.2288 67.5167L27.3722 14.3226C26.4338 12.8194 26.1252 11.0135 26.5119 9.28873C26.8987 7.56398 27.9503 6.05644 29.4432 5.08658C30.9317 4.19203 32.718 3.91772 34.4106 4.32379C36.1032 4.72985 37.5639 5.78315 38.4726 7.25278L71.3282 60.4469C71.609 60.8842 72.0504 61.1965 72.5595 61.3181C73.0686 61.4397 73.6056 61.361 74.0571 61.0986C74.5063 60.827 74.828 60.3901 74.9516 59.8839C75.0751 59.3778 74.9904 58.8438 74.7161 58.3994L48.8763 16.5654C47.9379 15.0623 47.6293 13.2563 48.0162 11.5317C48.4032 9.80699 49.4551 8.29968 50.9484 7.33032C51.6637 6.87809 52.4637 6.57275 53.3007 6.43246C54.1377 6.29218 54.9948 6.3198 55.8208 6.5137C56.6812 6.71055 57.4929 7.07648 58.2075 7.58974C58.9221 8.10299 59.5251 8.7531 59.9807 9.50143C60.197 9.84986 81.731 44.459 85.6726 50.8487C85.8934 51.2063 86.2243 51.4847 86.6166 51.643C87.009 51.8013 87.4422 51.8313 87.853 51.7285C88.2638 51.6257 88.6306 51.3956 88.8996 51.0718C89.1687 50.748 89.3259 50.3475 89.3482 49.929L90.0111 37.4716C90.0222 35.8077 90.6805 34.2118 91.8495 33.0152C93.0184 31.8185 94.6083 31.1129 96.2892 31.0447C97.9702 30.9765 99.6131 31.551 100.877 32.649C102.141 33.747 102.93 35.2841 103.078 36.9416C103.078 36.9416 107.4 83.0138 107.618 85.4686C108.058 90.4164 108.286 94.9137 106.607 99.8311ZM17.2661 108.264C12.7629 106.773 8.97507 102.029 6.93084 98.084C4.54352 93.4959 4.07693 88.1631 5.63186 83.2376C5.7924 82.7417 5.7472 82.203 5.5062 81.7401C5.2652 81.2772 4.84814 80.9279 4.34677 80.7691C3.8454 80.6103 3.30078 80.655 2.83274 80.8934C2.3647 81.1318 2.01156 81.5443 1.85102 82.0402C-0.0207735 87.9559 0.535281 94.3625 3.39908 99.8762C4.5631 102.124 8.91652 109.641 16.0068 111.988C16.2541 112.07 16.5151 112.103 16.7752 112.085C17.0352 112.067 17.2891 111.998 17.5224 111.883C17.7556 111.768 17.9637 111.609 18.1347 111.414C18.3057 111.219 18.4363 110.993 18.519 110.749C18.6017 110.504 18.6348 110.246 18.6166 109.989C18.5984 109.732 18.5292 109.481 18.4128 109.25C18.2965 109.019 18.1353 108.813 17.9386 108.644C17.7418 108.475 17.5133 108.346 17.2661 108.264ZM22.2279 98.4471C19.8958 97.6757 17.9012 95.1512 16.8097 93.0439C15.5477 90.6208 15.3 87.8039 16.12 85.2016C16.2015 84.9556 16.233 84.6961 16.2127 84.438C16.1924 84.1799 16.1207 83.9284 16.0017 83.6978C15.8828 83.4673 15.7188 83.2622 15.5194 83.0946C15.32 82.9269 15.0891 82.7999 14.8398 82.7209C14.5906 82.6419 14.328 82.6124 14.0672 82.6341C13.8064 82.6559 13.5526 82.7285 13.3202 82.8476C13.0879 82.9668 12.8817 83.1303 12.7135 83.3286C12.5453 83.5269 12.4184 83.7562 12.3401 84.0032C11.2019 87.5954 11.5384 91.4864 13.2769 94.8352C13.9795 96.1916 16.6112 100.729 20.9686 102.171C21.4681 102.33 22.0107 102.289 22.4803 102.058C22.9499 101.826 23.3091 101.422 23.4812 100.931C23.6478 100.438 23.6094 99.8985 23.3744 99.4327C23.1394 98.9668 22.727 98.6124 22.2279 98.4471ZM123.697 20.4443C122.288 18.3674 117.131 11.4802 109.941 10.0334C109.426 9.92967 108.889 10.0329 108.45 10.3203C108.011 10.6077 107.706 11.0558 107.601 11.566C107.496 12.0763 107.6 12.6068 107.891 13.0409C108.182 13.475 108.635 13.7772 109.15 13.8809C113.686 14.7937 117.936 19.0005 120.402 22.6331C123.289 26.8868 124.398 32.0811 123.496 37.1261C123.449 37.3797 123.453 37.64 123.507 37.8922C123.562 38.1443 123.666 38.3834 123.814 38.5956C123.962 38.8079 124.151 38.9893 124.37 39.1294C124.589 39.2695 124.833 39.3655 125.09 39.4121C125.208 39.4339 125.329 39.4447 125.45 39.4445C125.914 39.444 126.363 39.2828 126.719 38.9889C127.075 38.695 127.316 38.287 127.4 37.8358C128.486 31.7832 127.159 25.5497 123.697 20.4443ZM106.341 20.3246C105.825 20.221 105.289 20.3243 104.85 20.6119C104.411 20.8996 104.105 21.3478 104.001 21.8582C103.896 22.3685 104 22.8991 104.291 23.3333C104.582 23.7674 105.035 24.0695 105.551 24.1731C107.89 24.6442 110.129 26.8821 111.444 28.8186C112.97 31.0665 113.557 33.8117 113.081 36.4783C113.034 36.7319 113.038 36.9921 113.092 37.2442C113.147 37.4963 113.251 37.7353 113.399 37.9476C113.547 38.1598 113.736 38.3412 113.954 38.4813C114.173 38.6215 114.418 38.7176 114.674 38.7643C114.93 38.8109 115.193 38.8072 115.448 38.7533C115.703 38.6994 115.945 38.5963 116.159 38.45C116.374 38.3038 116.557 38.1171 116.699 37.9007C116.841 37.6843 116.938 37.4425 116.985 37.1889C117.646 33.5143 116.84 29.7294 114.738 26.6298C113.888 25.3764 110.767 21.2148 106.341 20.3246Z" fill="url(#paint0_linear_1126_16605)"/>
<defs>
<linearGradient id="paint0_linear_1126_16605" x1="0.761719" y1="62.9898" x2="127.77" y2="62.9898" gradientUnits="userSpaceOnUse">
<stop stop-color="#553C9A"/>
<stop offset="1" stop-color="#047857"/>
</linearGradient>
</defs>
</svg>
