<svg width="62" height="65" viewBox="0 0 62 65" fill="none" xmlns="http://www.w3.org/2000/svg">
<g filter="url(#filter0_d_967_28263)">
<rect x="7" y="55" width="50" height="48" rx="4.58198" transform="rotate(-90 7 55)" fill="#F8F8F8" shape-rendering="crispEdges"/>
<path d="M27.5883 40.5257V36.8456C27.5882 35.9096 28.3514 35.149 29.2968 35.1427H32.7601C33.7101 35.1427 34.4802 35.9051 34.4802 36.8456V40.5371C34.48 41.3318 35.1207 41.9814 35.9233 42H38.2321C40.5338 42 42.3996 40.1528 42.3996 37.8742V27.4054C42.3873 26.509 41.9622 25.6672 41.2452 25.1196L33.3489 18.8224C31.9655 17.7259 29.9991 17.7259 28.6157 18.8224L20.754 25.1311C20.0343 25.6764 19.6085 26.5196 19.5996 27.4168V37.8742C19.5996 40.1528 21.4655 42 23.7671 42H26.076C26.8984 42 27.5652 41.3399 27.5652 40.5257" stroke="#553C9A" stroke-width="2" stroke-linecap="round" stroke-linejoin="round"/>
</g>
<defs>
<filter id="filter0_d_967_28263" x="0.127025" y="0.418017" width="61.7459" height="63.7459" filterUnits="userSpaceOnUse" color-interpolation-filters="sRGB">
<feFlood flood-opacity="0" result="BackgroundImageFix"/>
<feColorMatrix in="SourceAlpha" type="matrix" values="0 0 0 0 0 0 0 0 0 0 0 0 0 0 0 0 0 0 127 0" result="hardAlpha"/>
<feOffset dy="2.29099"/>
<feGaussianBlur stdDeviation="3.43649"/>
<feComposite in2="hardAlpha" operator="out"/>
<feColorMatrix type="matrix" values="0 0 0 0 0 0 0 0 0 0 0 0 0 0 0 0 0 0 0.15 0"/>
<feBlend mode="normal" in2="BackgroundImageFix" result="effect1_dropShadow_967_28263"/>
<feBlend mode="normal" in="SourceGraphic" in2="effect1_dropShadow_967_28263" result="shape"/>
</filter>
</defs>
</svg>
