<svg width="33" height="32" viewBox="0 0 33 32" fill="none" xmlns="http://www.w3.org/2000/svg">
<path d="M19.1705 25.9106C19.1705 26.6983 18.8576 27.4538 18.3006 28.0107C17.7436 28.5677 16.9882 28.8806 16.2005 28.8806C15.4128 28.8806 14.6573 28.5677 14.1004 28.0107C13.5434 27.4538 13.2305 26.6983 13.2305 25.9106C13.2305 25.1229 13.5434 24.3675 14.1004 23.8105C14.6573 23.2535 15.4128 22.9406 16.2005 22.9406C16.9882 22.9406 17.7436 23.2535 18.3006 23.8105C18.8576 24.3675 19.1705 25.1229 19.1705 25.9106ZM19.1705 16.0106C19.1705 16.7983 18.8576 17.5538 18.3006 18.1107C17.7436 18.6677 16.9882 18.9806 16.2005 18.9806C15.4128 18.9806 14.6573 18.6677 14.1004 18.1107C13.5434 17.5538 13.2305 16.7983 13.2305 16.0106C13.2305 15.2229 13.5434 14.4675 14.1004 13.9105C14.6573 13.3535 15.4128 13.0406 16.2005 13.0406C16.9882 13.0406 17.7436 13.3535 18.3006 13.9105C18.8576 14.4675 19.1705 15.2229 19.1705 16.0106ZM19.1705 6.11063C19.1705 6.89832 18.8576 7.65375 18.3006 8.21073C17.7436 8.76772 16.9882 9.08063 16.2005 9.08063C15.4128 9.08063 14.6573 8.76772 14.1004 8.21073C13.5434 7.65375 13.2305 6.89832 13.2305 6.11063C13.2305 5.32293 13.5434 4.5675 14.1004 4.01052C14.6573 3.45353 15.4128 3.14063 16.2005 3.14062C16.9882 3.14063 17.7436 3.45353 18.3006 4.01052C18.8576 4.5675 19.1705 5.32293 19.1705 6.11063Z" fill="#553C9A"/>
</svg>
