<svg width="62" height="65" viewBox="0 0 62 65" fill="none" xmlns="http://www.w3.org/2000/svg">
<g filter="url(#filter0_d_967_28265)">
<rect x="7" y="55" width="50" height="48" rx="4.58198" transform="rotate(-90 7 55)" fill="#F8F8F8" shape-rendering="crispEdges"/>
<path d="M31.4062 26.5859H37.1469" stroke="#553C9A" stroke-width="1.64019" stroke-linecap="round" stroke-linejoin="round"/>
<path d="M24.8535 26.5855L25.6736 27.4056L28.1339 24.9453" stroke="#553C9A" stroke-width="1.64019" stroke-linecap="round" stroke-linejoin="round"/>
<path d="M31.4062 34.2422H37.1469" stroke="#553C9A" stroke-width="1.64019" stroke-linecap="round" stroke-linejoin="round"/>
<path d="M24.8535 34.2417L25.6736 35.0618L28.1339 32.6016" stroke="#553C9A" stroke-width="1.64019" stroke-linecap="round" stroke-linejoin="round"/>
<path d="M27.7206 40.9317H34.2814C39.7486 40.9317 41.9356 38.7447 41.9356 33.2775V26.7167C41.9356 21.2494 39.7486 19.0625 34.2814 19.0625H27.7206C22.2533 19.0625 20.0664 21.2494 20.0664 26.7167V33.2775C20.0664 38.7447 22.2533 40.9317 27.7206 40.9317Z" stroke="#553C9A" stroke-width="1.64019" stroke-linecap="round" stroke-linejoin="round"/>
</g>
<defs>
<filter id="filter0_d_967_28265" x="0.127025" y="0.418017" width="61.7459" height="63.7459" filterUnits="userSpaceOnUse" color-interpolation-filters="sRGB">
<feFlood flood-opacity="0" result="BackgroundImageFix"/>
<feColorMatrix in="SourceAlpha" type="matrix" values="0 0 0 0 0 0 0 0 0 0 0 0 0 0 0 0 0 0 127 0" result="hardAlpha"/>
<feOffset dy="2.29099"/>
<feGaussianBlur stdDeviation="3.43649"/>
<feComposite in2="hardAlpha" operator="out"/>
<feColorMatrix type="matrix" values="0 0 0 0 0 0 0 0 0 0 0 0 0 0 0 0 0 0 0.15 0"/>
<feBlend mode="normal" in2="BackgroundImageFix" result="effect1_dropShadow_967_28265"/>
<feBlend mode="normal" in="SourceGraphic" in2="effect1_dropShadow_967_28265" result="shape"/>
</filter>
</defs>
</svg>
