<svg width="32" height="32" viewBox="0 0 32 32" fill="none" xmlns="http://www.w3.org/2000/svg">
<path d="M26.4621 21.9154C24.8732 19.9706 23.7514 18.9806 23.7514 13.6192C23.7514 8.70938 21.2442 6.96017 19.1807 6.11062C18.9066 5.99801 18.6486 5.73937 18.565 5.45784C18.2031 4.22591 17.1883 3.14062 15.8394 3.14062C14.4906 3.14062 13.4752 4.22653 13.1169 5.45908C13.0334 5.74371 12.7754 5.99801 12.5013 6.11062C10.4353 6.96141 7.93056 8.70443 7.93056 13.6192C7.92747 18.9806 6.80568 19.9706 5.21673 21.9154C4.55838 22.721 5.13505 23.9306 6.28655 23.9306H25.3985C26.5438 23.9306 27.1168 22.7173 26.4621 21.9154Z" stroke="#553C9A" stroke-width="2.64" stroke-linecap="round" stroke-linejoin="round"/>
<path d="M19.7989 23.9297V24.9197C19.7989 25.9699 19.3817 26.9772 18.639 27.7198C17.8964 28.4625 16.8892 28.8797 15.8389 28.8797C14.7886 28.8797 13.7814 28.4625 13.0388 27.7198C12.2961 26.9772 11.8789 25.9699 11.8789 24.9197V23.9297" stroke="#553C9A" stroke-width="2.64" stroke-linecap="round" stroke-linejoin="round"/>
</svg>
