<svg width="51" height="187" viewBox="0 0 51 187" fill="none" xmlns="http://www.w3.org/2000/svg">
<g filter="url(#filter0_d_967_21260)">
<path d="M20.8483 25.5449L23.1178 25.5331C23.1178 25.5331 24.4092 26.1879 25.6173 26.1816C26.8254 26.1752 27.9493 25.5078 27.9493 25.5078L29.9322 25.545H30.4096C30.4096 25.545 28.1534 27.2239 25.7539 27.2239C23.3544 27.2239 20.8125 25.545 20.8125 25.545L20.8483 25.5449Z" fill="url(#paint0_linear_967_21260)"/>
<path d="M23.0922 15.6915C23.6104 13.4448 27.6037 13.4328 28.1169 15.6759L30.064 24.8373C30.064 24.8373 27.6129 26.1738 25.6133 26.185C23.6112 26.1963 21.1484 24.8623 21.1484 24.8623C21.1484 24.8623 23.088 15.7097 23.0922 15.6915Z" fill="url(#paint1_linear_967_21260)"/>
<path d="M20.8081 25.5078C20.8081 25.5078 23.2101 27.0379 25.6129 27.0379C28.0149 27.0379 30.4052 25.5078 30.4052 25.5078L33.842 37.2125C34.7593 40.3391 35.225 43.581 35.2234 46.8395L35.17 166.809C35.17 166.809 30.4111 169.262 25.6179 169.262C20.8256 169.262 16 166.809 16 166.809V46.7966C16 43.5448 16.4649 40.3096 17.3805 37.1893L20.8081 25.5078Z" fill="url(#paint2_linear_967_21260)"/>
<path d="M16 49.7109C16 49.7109 20.8048 51.7458 25.6113 51.7458C30.4177 51.7458 35.225 49.7109 35.225 49.7109V52.8444C35.225 52.8444 30.4252 54.8944 25.6188 54.8944C20.8123 54.8944 16 52.8444 16 52.8444V49.7109Z" fill="url(#paint3_linear_967_21260)"/>
</g>
<defs>
<filter id="filter0_d_967_21260" x="0.668934" y="0.538576" width="49.8887" height="185.928" filterUnits="userSpaceOnUse" color-interpolation-filters="sRGB">
<feFlood flood-opacity="0" result="BackgroundImageFix"/>
<feColorMatrix in="SourceAlpha" type="matrix" values="0 0 0 0 0 0 0 0 0 0 0 0 0 0 0 0 0 0 127 0" result="hardAlpha"/>
<feMorphology radius="3.73928" operator="dilate" in="SourceAlpha" result="effect1_dropShadow_967_21260"/>
<feOffset dy="1.86964"/>
<feGaussianBlur stdDeviation="5.79589"/>
<feComposite in2="hardAlpha" operator="out"/>
<feColorMatrix type="matrix" values="0 0 0 0 0 0 0 0 0 0 0 0 0 0 0 0 0 0 0.21 0"/>
<feBlend mode="normal" in2="BackgroundImageFix" result="effect1_dropShadow_967_21260"/>
<feBlend mode="normal" in="SourceGraphic" in2="effect1_dropShadow_967_21260" result="shape"/>
</filter>
<linearGradient id="paint0_linear_967_21260" x1="20.8717" y1="29.3886" x2="30.434" y2="29.3307" gradientUnits="userSpaceOnUse">
<stop stop-color="#A5A7A8"/>
<stop offset="0.13125" stop-color="#BCBEC0"/>
<stop offset="0.860417" stop-color="#141414"/>
<stop offset="1" stop-color="#5A5A5A"/>
</linearGradient>
<linearGradient id="paint1_linear_967_21260" x1="21.5425" y1="20.1061" x2="29.6096" y2="20.0167" gradientUnits="userSpaceOnUse">
<stop stop-color="#A1F1FF"/>
<stop offset="0.13125" stop-color="#CBF7FF"/>
<stop offset="0.860417" stop-color="#1A9FB7"/>
<stop offset="1" stop-color="#66CBDD"/>
</linearGradient>
<linearGradient id="paint2_linear_967_21260" x1="15.3526" y1="44.0122" x2="35.7099" y2="43.7972" gradientUnits="userSpaceOnUse">
<stop stop-color="#E8E9EA"/>
<stop offset="0.13125" stop-color="#F9F9F9"/>
<stop offset="0.802083" stop-color="#B3B3B3"/>
<stop offset="1" stop-color="#D3D3D3"/>
</linearGradient>
<linearGradient id="paint3_linear_967_21260" x1="16" y1="51.2777" x2="35.2249" y2="51.2777" gradientUnits="userSpaceOnUse">
<stop stop-color="#A1F1FF"/>
<stop offset="0.13125" stop-color="#CBF7FF"/>
<stop offset="0.860417" stop-color="#1A9FB7"/>
<stop offset="1" stop-color="#66CBDD"/>
</linearGradient>
</defs>
</svg>
