<svg width="191" height="192" viewBox="0 0 191 192" fill="none" xmlns="http://www.w3.org/2000/svg">
<rect width="190.4" height="192" rx="95.2" fill="#553C9A"/>
<path d="M73.5092 67.1785L63.0118 64.4297C63.0118 64.4297 56.6998 84.0332 65.5004 90.7638C74.3011 97.4944 73.5092 67.1785 73.5092 67.1785Z" fill="#685A56"/>
<path d="M38.8359 191.997C38.8359 191.997 49.9216 137.609 97.6579 137.609C145.394 137.609 151.57 191.997 151.57 191.997H38.8359Z" fill="#373C44"/>
<path d="M66.3868 97.8245C70.9039 95.9636 73.0572 90.7932 71.1963 86.276C69.3354 81.7588 64.1649 79.6055 59.6478 81.4665C55.1306 83.3274 52.9773 88.4978 54.8382 93.015C56.6992 97.5321 61.8696 99.6855 66.3868 97.8245Z" fill="#CE8282"/>
<path d="M134.964 95.9191C138.419 92.4645 138.419 86.8636 134.964 83.409C131.51 79.9545 125.909 79.9545 122.454 83.409C119 86.8636 119 92.4645 122.454 95.9191C125.909 99.3736 131.51 99.3736 134.964 95.9191Z" fill="#CE8282"/>
<path d="M107.285 121.774L105.792 102.125L90.4413 104.229L87.9414 132.961C91.7665 132.545 95.4625 131.334 98.7932 129.408C102.124 127.482 105.016 124.881 107.285 121.774Z" fill="#D19582"/>
<path d="M70.9067 68.5096C74.7414 72.3669 70.2846 81.8124 65.4996 81.2241C65.2392 84.8302 65.3872 88.4542 65.9408 92.027C66.9702 101.314 71.4044 109.402 79.8318 113.893C88.2592 118.384 99.7634 120.001 108.813 116.291C112.208 114.97 115.299 112.971 117.895 110.415C120.492 107.859 122.54 104.801 123.914 101.427C127.059 93.5089 127.093 83.5318 126.663 75.0478C125.091 43.646 99.5145 44.1098 99.5145 44.1098C99.5145 44.1098 80.3295 44.9582 70.9067 68.5096Z" fill="#E5B5A3"/>
<path d="M87.9398 132.961L86.8086 145.608C86.8086 145.608 87.2611 151.92 97.4983 153.13C107.736 154.34 108.923 143.651 108.923 143.651L107.261 121.773C104.994 124.878 102.106 127.477 98.7792 129.403C95.4525 131.33 91.7609 132.541 87.9398 132.961Z" fill="#E5B5A3"/>
<path d="M82.0216 90.7035C82.89 90.7035 83.5939 89.2955 83.5939 87.5588C83.5939 85.822 82.89 84.4141 82.0216 84.4141C81.1532 84.4141 80.4492 85.822 80.4492 87.5588C80.4492 89.2955 81.1532 90.7035 82.0216 90.7035Z" fill="#373C44"/>
<path d="M112.668 88.09C112.668 89.8207 111.967 91.2347 111.096 91.2347C110.225 91.2347 109.523 89.8207 109.523 88.09C109.523 86.3593 110.236 84.9453 111.073 84.9453C111.91 84.9453 112.668 86.3593 112.668 88.09Z" fill="#373C44"/>
<path d="M96.3697 89.6641C95.7362 90.06 95.1254 90.4446 94.5485 90.7953C93.9716 91.1459 93.4173 91.6889 93.3494 92.0622C93.3494 92.2206 93.4173 92.4015 93.6774 92.6278C93.895 92.8418 94.1579 93.0042 94.4467 93.1029C94.7735 93.1796 95.1124 93.189 95.443 93.1307C95.7736 93.0723 96.0889 92.9474 96.3697 92.7635C96.1459 93.0974 95.8372 93.3656 95.4753 93.5405C95.1135 93.7155 94.7116 93.7909 94.3109 93.759C93.8969 93.6875 93.5078 93.5124 93.1797 93.2499C92.974 93.1095 92.8065 92.9203 92.6919 92.6992C92.5774 92.4781 92.5196 92.232 92.5236 91.983C92.6098 91.5266 92.8693 91.1213 93.2476 90.8518C93.5509 90.6081 93.8857 90.4064 94.243 90.2523C94.9141 89.939 95.633 89.7402 96.3697 89.6641Z" fill="#373C44"/>
<path d="M91.9805 97.0226C92.6632 97.4605 93.3823 97.839 94.1297 98.1538C94.8452 98.4673 95.6119 98.6475 96.3921 98.6855C97.1512 98.738 97.9109 98.5938 98.5979 98.2669C99.3355 97.9277 100.03 97.5025 100.668 97C100.44 97.3575 100.19 97.7012 99.9214 98.0294C99.6226 98.3466 99.2842 98.6241 98.9147 98.8552C98.157 99.3488 97.261 99.5867 96.3582 99.5339C95.4859 99.4744 94.6385 99.2174 93.8802 98.7823C93.1218 98.3473 92.4722 97.7456 91.9805 97.0226Z" fill="#373C44"/>
<path d="M80.4632 101.38C82.2875 101.38 83.7663 99.9008 83.7663 98.0765C83.7663 96.2523 82.2875 94.7734 80.4632 94.7734C78.639 94.7734 77.1602 96.2523 77.1602 98.0765C77.1602 99.9008 78.639 101.38 80.4632 101.38Z" fill="#CE8282"/>
<path d="M111.096 101.38C112.92 101.38 114.399 99.9008 114.399 98.0765C114.399 96.2523 112.92 94.7734 111.096 94.7734C109.272 94.7734 107.793 96.2523 107.793 98.0765C107.793 99.9008 109.272 101.38 111.096 101.38Z" fill="#CE8282"/>
<path d="M122.184 75.1209C121.325 72.6209 120.997 69.9626 120.25 67.4175C119.648 64.8104 118.146 62.4992 116.008 60.8905C113.673 59.5531 110.932 59.1071 108.293 59.6349C101.246 60.6303 95.1716 64.9854 88.4523 67.3609C80.9754 69.9786 72.852 70.1056 65.2969 67.7229C62.6445 66.9583 60.169 65.6783 58.012 63.956C55.889 62.111 54.329 59.7051 53.5107 57.0141C52.6924 54.3231 52.6489 51.456 53.3854 48.7415C53.6149 47.7508 54.1073 46.8403 54.8107 46.1058C55.1676 45.7448 55.6226 45.4966 56.1194 45.392C56.6161 45.2874 57.1326 45.3311 57.6047 45.5176C59.064 46.2302 59.1432 48.1193 59.392 49.5107C59.7314 51.3659 60.2744 53.9676 61.5639 55.3703C62.5594 53.73 61.9938 51.0604 62.1974 49.1827C62.2388 48.0983 62.4986 47.0335 62.9612 46.0519C63.4238 45.0704 64.0797 44.1922 64.8896 43.4701C65.2654 43.1441 65.7497 42.9706 66.247 42.9837C67.5253 43.1421 67.6724 44.8954 67.6158 46.1737C67.5156 48.4538 67.8733 50.7308 68.6678 52.8703C68.5434 48.9451 68.5207 44.6918 70.851 41.5584C71.0763 41.1622 71.407 40.8362 71.8063 40.6165C72.2057 40.3969 72.6581 40.2922 73.1134 40.3141C74.1088 40.529 74.55 41.7394 74.55 42.7575C74.4095 43.7757 74.4827 44.812 74.7649 45.8004C75.0563 46.3183 75.4853 46.7456 76.0043 47.035C76.5233 47.3245 77.1122 47.4649 77.706 47.4406C78.8774 47.3784 80.0276 47.1024 81.0996 46.6262C89.4636 43.4177 98.2094 41.3111 107.117 40.3594C110.511 40.0539 114.153 40.0087 117.298 41.4906C120.06 42.8769 122.304 45.1132 123.7 47.8705C125.086 50.6118 126.058 53.5432 126.585 56.5693C127.752 62.2837 128.246 68.1152 128.055 73.9444C128.055 75.4828 128.485 80.0981 126.087 79.985C124.175 79.8719 122.705 76.6819 122.184 75.1209Z" fill="#685A56"/>
<path d="M106.414 81.2942C106.997 80.3635 107.781 79.5755 108.709 78.9882C109.637 78.4008 110.685 78.0292 111.776 77.9006C112.901 77.766 114.041 77.9626 115.056 78.4662C116.045 78.9327 116.907 79.6312 117.568 80.5023C117.059 80.2874 116.629 80.0159 116.154 79.8123C115.697 79.6024 115.224 79.4284 114.74 79.292C113.82 78.9998 112.848 78.9072 111.889 79.0205C109.905 79.3183 108.025 80.0991 106.414 81.2942Z" fill="#373C44"/>
<path d="M87.0718 80.5238C86.3857 79.6999 85.5178 79.0464 84.5364 78.6146C83.555 78.1828 82.4869 77.9845 81.4159 78.0352C80.3419 78.0938 79.2786 78.2799 78.2485 78.5894L76.6762 79.1211C76.1445 79.3247 75.6242 79.5283 75.0586 79.698C75.4884 79.3134 75.9522 78.9741 76.416 78.5668C76.8798 78.1596 77.4228 77.9786 77.9431 77.7071C79.0084 77.2063 80.1611 76.9181 81.3367 76.8587C82.5651 76.7993 83.783 77.1107 84.8321 77.7524C85.8923 78.3714 86.6891 79.3573 87.0718 80.5238Z" fill="#373C44"/>
</svg>
