<svg width="20" height="22" viewBox="0 0 20 22" fill="none" xmlns="http://www.w3.org/2000/svg">
<path d="M1 8.73127C1 5.08671 1 3.26444 2.13222 2.13222C3.26444 1 5.08671 1 8.73127 1H10.6641C14.3086 1 16.131 1 17.2631 2.13222C18.3954 3.26444 18.3954 5.08671 18.3954 8.73127V12.5969C18.3954 16.2414 18.3954 18.0638 17.2631 19.1959C16.131 20.3282 14.3086 20.3282 10.6641 20.3282H8.73127C5.08671 20.3282 3.26444 20.3282 2.13222 19.1959C1 18.0638 1 16.2414 1 12.5969V8.73127Z" stroke="#553C9A" stroke-width="1.44961"/>
<path d="M5.83203 10.6641H13.5633" stroke="#553C9A" stroke-width="1.44961" stroke-linecap="round"/>
<path d="M5.83203 6.78906H13.5633" stroke="#553C9A" stroke-width="1.44961" stroke-linecap="round"/>
<path d="M5.83203 14.5312H10.6641" stroke="#553C9A" stroke-width="1.44961" stroke-linecap="round"/>
</svg>
