<svg width="45" height="44" viewBox="0 0 45 44" fill="none" xmlns="http://www.w3.org/2000/svg">
<g filter="url(#filter0_d_2512_57191)">
<path d="M5.33049 0.853876L11.9738 35.6573C12.0908 36.2793 12.9385 36.3705 13.1999 35.8084L20.3958 21.1286C20.4712 20.925 20.666 20.7834 20.8829 20.7747L37.068 18.4673C37.6833 18.3923 37.8585 17.558 37.3031 17.2545L6.25599 0.181465C5.78468 -0.108708 5.20016 0.315973 5.33049 0.853876Z" fill="#8A75C2"/>
<path d="M37.0683 18.4645L20.8833 20.7719C20.7925 20.8007 20.6597 20.8227 20.6044 20.9002L5.59896 0.247004C5.7938 0.105444 6.05942 0.0613035 6.29841 0.185365L37.3035 17.2517C37.8589 17.5552 37.7257 18.3962 37.0683 18.4645Z" fill="#553C9A"/>
</g>
<defs>
<filter id="filter0_d_2512_57191" x="0.646546" y="0.0859375" width="38.1489" height="43.0534" filterUnits="userSpaceOnUse" color-interpolation-filters="sRGB">
<feFlood flood-opacity="0" result="BackgroundImageFix"/>
<feColorMatrix in="SourceAlpha" type="matrix" values="0 0 0 0 0 0 0 0 0 0 0 0 0 0 0 0 0 0 127 0" result="hardAlpha"/>
<feOffset dx="-1.76055" dy="4.0547"/>
<feGaussianBlur stdDeviation="1.45246"/>
<feComposite in2="hardAlpha" operator="out"/>
<feColorMatrix type="matrix" values="0 0 0 0 0 0 0 0 0 0 0 0 0 0 0 0 0 0 0.25 0"/>
<feBlend mode="normal" in2="BackgroundImageFix" result="effect1_dropShadow_2512_57191"/>
<feBlend mode="normal" in="SourceGraphic" in2="effect1_dropShadow_2512_57191" result="shape"/>
</filter>
</defs>
</svg>
