<svg width="40" height="39" viewBox="0 0 40 39" fill="none" xmlns="http://www.w3.org/2000/svg">
<circle cx="19.9773" cy="19.0866" r="19.0476" fill="#BABABA"/>
<path d="M23.6209 30.0251H12.6787C12.3139 30.0251 12.0404 29.8427 11.858 29.5692C11.6756 29.2956 11.6756 28.9309 11.858 28.6573L17.3291 20.4506C17.6938 19.9035 18.5145 19.9035 18.8793 20.4506L24.2592 28.5661C24.4416 28.7485 24.5327 28.9309 24.5327 29.2044C24.5327 29.6603 24.168 30.0251 23.6209 30.0251ZM14.4112 28.2014H21.9796L18.1498 22.5479L14.4112 28.2014ZM30.0039 23.6421H22.709C22.1619 23.6421 21.7972 23.2774 21.7972 22.7303V15.4354C21.7972 14.8883 22.1619 14.5236 22.709 14.5236H30.0039C30.551 14.5236 30.9157 14.8883 30.9157 15.4354V22.7303C30.9157 23.2774 30.551 23.6421 30.0039 23.6421ZM23.6209 21.8184H29.092V16.3473H23.6209V21.8184ZM14.9583 19.9947C11.6756 19.9947 9.03125 17.3503 9.03125 14.0677C9.03125 10.785 11.6756 8.14062 14.9583 8.14062C18.241 8.14062 20.8853 10.785 20.8853 14.0677C20.8853 17.3503 18.241 19.9947 14.9583 19.9947ZM14.9583 9.96433C12.6787 9.96433 10.855 11.788 10.855 14.0677C10.855 16.3473 12.6787 18.171 14.9583 18.171C17.2379 18.171 19.0616 16.3473 19.0616 14.0677C19.0616 11.788 17.2379 9.96433 14.9583 9.96433Z" fill="#1A1A1A"/>
</svg>
