<svg width="32" height="32" viewBox="0 0 32 32" fill="none" xmlns="http://www.w3.org/2000/svg">
<path d="M11.9999 16C11.2088 16 10.4355 16.2346 9.77769 16.6741C9.11991 17.1137 8.60722 17.7384 8.30448 18.4692C8.00173 19.2001 7.92252 20.0044 8.07686 20.7803C8.2312 21.5562 8.61215 22.2689 9.17156 22.8283C9.73096 23.3877 10.4437 23.7687 11.2196 23.923C11.9955 24.0774 12.7998 23.9982 13.5306 23.6954C14.2615 23.3927 14.8862 22.88 15.3258 22.2222C15.7653 21.5644 15.9999 20.7911 15.9999 20C15.9999 18.9391 15.5784 17.9217 14.8283 17.1716C14.0782 16.4214 13.0608 16 11.9999 16ZM23.8435 14.2857L20.502 8.57171C20.399 8.39758 20.2524 8.25329 20.0767 8.15306C19.9009 8.05283 19.7021 8.00012 19.4998 8.00012C19.2975 8.00012 19.0987 8.05283 18.923 8.15306C18.7472 8.25329 18.6006 8.39758 18.4976 8.57171L15.1561 14.2857C14.7111 15.0475 15.268 16 16.1589 16H22.8407C23.7316 16 24.2885 15.0475 23.8435 14.2857ZM22.9998 17H17.9998C17.7346 17 17.4803 17.1054 17.2927 17.2929C17.1052 17.4804 16.9999 17.7348 16.9999 18V22.9999C16.9999 23.2651 17.1052 23.5195 17.2927 23.707C17.4803 23.8945 17.7346 23.9999 17.9998 23.9999H22.9998C23.265 23.9999 23.5193 23.8945 23.7068 23.707C23.8944 23.5195 23.9997 23.2651 23.9997 22.9999V18C23.9997 17.7348 23.8944 17.4804 23.7068 17.2929C23.5193 17.1054 23.265 17 22.9998 17Z" fill="#4C1D95"/>
</svg>
