<svg width="40" height="39" viewBox="0 0 40 39" fill="none" xmlns="http://www.w3.org/2000/svg">
<circle cx="19.9773" cy="19.6413" r="19.0476" fill="#BABABA"/>
<path d="M20.0541 27.4246C20.0541 27.618 19.9783 27.8036 19.8435 27.9404C19.7087 28.0772 19.5258 28.1541 19.3352 28.1541H13.5842C13.3935 28.1541 13.2106 28.0772 13.0758 27.9404C12.941 27.8036 12.8653 27.618 12.8653 27.4246C12.8653 27.2311 12.941 27.0456 13.0758 26.9088C13.2106 26.772 13.3935 26.6951 13.5842 26.6951H15.7408V12.5918H10.469V13.8076C10.469 14.0011 10.3933 14.1866 10.2585 14.3234C10.1236 14.4602 9.94079 14.5371 9.75013 14.5371C9.55947 14.5371 9.37662 14.4602 9.2418 14.3234C9.10699 14.1866 9.03125 14.0011 9.03125 13.8076V11.8623C9.03125 11.6688 9.10699 11.4833 9.2418 11.3465C9.37662 11.2097 9.55947 11.1328 9.75013 11.1328H23.1692C23.3599 11.1328 23.5427 11.2097 23.6775 11.3465C23.8123 11.4833 23.8881 11.6688 23.8881 11.8623V13.8076C23.8881 14.0011 23.8123 14.1866 23.6775 14.3234C23.5427 14.4602 23.3599 14.5371 23.1692 14.5371C22.9785 14.5371 22.7957 14.4602 22.6609 14.3234C22.5261 14.1866 22.4503 14.0011 22.4503 13.8076V12.5918H17.1785V26.6951H19.3352C19.5258 26.6951 19.7087 26.772 19.8435 26.9088C19.9783 27.0456 20.0541 27.2311 20.0541 27.4246ZM28.9202 18.914H21.2522C21.0615 18.914 20.8787 18.9908 20.7439 19.1276C20.6091 19.2644 20.5333 19.45 20.5333 19.6434V20.6161C20.5333 20.8095 20.6091 20.9951 20.7439 21.1319C20.8787 21.2687 21.0615 21.3456 21.2522 21.3456C21.4429 21.3456 21.6257 21.2687 21.7605 21.1319C21.8953 20.9951 21.9711 20.8095 21.9711 20.6161V20.3729H24.3673V26.6951H23.1692C22.9785 26.6951 22.7957 26.772 22.6609 26.9088C22.5261 27.0456 22.4503 27.2311 22.4503 27.4246C22.4503 27.618 22.5261 27.8036 22.6609 27.9404C22.7957 28.0772 22.9785 28.1541 23.1692 28.1541H27.0032C27.1939 28.1541 27.3767 28.0772 27.5116 27.9404C27.6464 27.8036 27.7221 27.618 27.7221 27.4246C27.7221 27.2311 27.6464 27.0456 27.5116 26.9088C27.3767 26.772 27.1939 26.6951 27.0032 26.6951H25.8051V20.3729H28.2014V20.6161C28.2014 20.8095 28.2771 20.9951 28.4119 21.1319C28.5467 21.2687 28.7296 21.3456 28.9202 21.3456C29.1109 21.3456 29.2937 21.2687 29.4286 21.1319C29.5634 20.9951 29.6391 20.8095 29.6391 20.6161V19.6434C29.6391 19.45 29.5634 19.2644 29.4286 19.1276C29.2937 18.9908 29.1109 18.914 28.9202 18.914Z" fill="#1A1A1A"/>
</svg>
