<svg width="37" height="37" viewBox="0 0 37 37" fill="none" xmlns="http://www.w3.org/2000/svg">
<circle cx="18.8403" cy="18.2222" r="18.1597" fill="#553C9A"/>
<path fill-rule="evenodd" clip-rule="evenodd" d="M15.7646 8.71094C14.2714 8.71094 13.0085 9.6764 12.5387 11.0117C11.8932 11.0439 11.27 11.2579 10.7408 11.629C10.2116 12 9.79805 12.513 9.54777 13.1089C9.30319 13.6989 9.22869 14.3456 9.33271 14.9758C8.73475 15.4541 8.27918 16.0869 8.01541 16.8058C7.75165 17.5246 7.68976 18.302 7.83647 19.0535C8.02809 20.0253 8.55762 20.898 9.33119 21.5167C9.24293 22.0632 9.28832 22.6229 9.46349 23.148C9.63866 23.6731 9.9384 24.148 10.3371 24.5321C10.9338 25.1014 11.7157 25.4366 12.5395 25.4762C13.0733 26.9938 14.5955 27.9608 16.213 27.748C17.3683 27.5955 18.3163 26.8687 18.815 25.8857C19.3138 26.8695 20.2617 27.5955 21.417 27.748C23.0338 27.9608 24.5575 26.993 25.0905 25.4762C25.9143 25.4366 26.6963 25.1014 27.293 24.5321C27.6915 24.1481 27.9912 23.6733 28.1664 23.1484C28.3415 22.6234 28.387 22.0638 28.2988 21.5175C29.0724 20.8987 29.6019 20.0261 29.7936 19.0542C29.9404 18.3026 29.8786 17.5251 29.6148 16.8061C29.3511 16.0871 28.8954 15.4541 28.2973 14.9758C28.3965 14.3573 28.3339 13.7121 28.0823 13.1089C27.832 12.513 27.4184 12 26.8892 11.629C26.3601 11.2579 25.7368 11.0439 25.0913 11.0117C24.6215 9.67717 23.3587 8.71094 21.8655 8.71094C20.5309 8.71094 19.3824 9.48575 18.815 10.6022C18.2476 9.48575 17.0991 8.71094 15.7646 8.71094ZM15.7646 9.47355C17.2433 9.47355 18.4337 10.6632 18.4337 12.1427C18.4334 12.1511 18.4334 12.1595 18.4337 12.1679V24.3445C18.4343 24.9559 18.2247 25.5489 17.8401 26.0241C17.4554 26.4993 16.9191 26.8278 16.321 26.9546C15.7229 27.0814 15.0994 26.9986 14.555 26.7203C14.0106 26.442 13.5785 25.9849 13.3311 25.4258C13.4211 25.4091 13.5118 25.3953 13.6018 25.3725C13.6996 25.3464 13.783 25.2825 13.8337 25.1949C13.8844 25.1073 13.8982 25.0032 13.8722 24.9054C13.8461 24.8076 13.7822 24.7241 13.6946 24.6734C13.607 24.6227 13.5028 24.6089 13.4051 24.635C12.9613 24.7534 12.4946 24.7555 12.0498 24.6412C11.605 24.5268 11.1972 24.2999 10.8656 23.9822C10.5966 23.7228 10.3853 23.4096 10.2452 23.0632C10.1051 22.7167 10.0395 22.3447 10.0526 21.9712C10.3104 22.1031 10.5788 22.2191 10.8656 22.2961C10.9634 22.3224 11.0676 22.3087 11.1553 22.2582C11.2431 22.2076 11.3071 22.1243 11.3334 22.0265C11.3597 21.9287 11.3461 21.8245 11.2955 21.7367C11.245 21.649 11.1616 21.5849 11.0638 21.5586C10.4768 21.4024 9.94195 21.0929 9.51397 20.6619C9.086 20.2308 8.78033 19.6937 8.6283 19.1056C8.47627 18.5175 8.48335 17.8996 8.6488 17.3151C8.81426 16.7307 9.13215 16.2007 9.56989 15.7796C9.73842 16.1738 9.97331 16.5437 10.2875 16.8579C10.3227 16.8943 10.3648 16.9234 10.4113 16.9434C10.4578 16.9633 10.5078 16.9739 10.5585 16.9743C10.6091 16.9747 10.6593 16.9651 10.7062 16.9459C10.753 16.9268 10.7956 16.8984 10.8314 16.8626C10.8672 16.8268 10.8955 16.7843 10.9147 16.7374C10.9339 16.6905 10.9435 16.6403 10.9431 16.5897C10.9426 16.5391 10.9321 16.489 10.9121 16.4425C10.8921 16.396 10.8631 16.3539 10.8267 16.3187C10.474 15.9664 10.2271 15.5223 10.114 15.0368C10.0008 14.5513 10.0259 14.0439 10.1864 13.5719C10.347 13.1 10.6365 12.6824 11.0222 12.3666C11.4079 12.0508 11.8743 11.8493 12.3687 11.785C12.3557 11.904 12.3328 12.0199 12.3328 12.1427C12.3328 12.2438 12.373 12.3408 12.4445 12.4123C12.516 12.4838 12.613 12.524 12.7141 12.524C12.8153 12.524 12.9122 12.4838 12.9838 12.4123C13.0553 12.3408 13.0954 12.2438 13.0954 12.1427C13.0954 10.6632 14.2859 9.47355 15.7646 9.47355ZM21.8655 9.47355C23.3442 9.47355 24.5346 10.6632 24.5346 12.1427C24.5346 12.2438 24.5748 12.3408 24.6463 12.4123C24.7178 12.4838 24.8148 12.524 24.9159 12.524C25.017 12.524 25.114 12.4838 25.1855 12.4123C25.257 12.3408 25.2972 12.2438 25.2972 12.1427C25.2972 12.0207 25.2743 11.904 25.2614 11.785C25.756 11.8487 26.2229 12.0499 26.609 12.3657C26.995 12.6814 27.2848 13.0991 27.4454 13.5713C27.606 14.0435 27.631 14.5512 27.5175 15.0369C27.404 15.5225 27.1566 15.9666 26.8034 16.3187C26.7669 16.3539 26.7379 16.396 26.7179 16.4425C26.6979 16.489 26.6874 16.5391 26.687 16.5897C26.6865 16.6403 26.6962 16.6905 26.7154 16.7374C26.7345 16.7843 26.7628 16.8268 26.7986 16.8626C26.8344 16.8984 26.877 16.9268 26.9239 16.9459C26.9707 16.9651 27.0209 16.9747 27.0716 16.9743C27.1222 16.9739 27.1722 16.9633 27.2188 16.9434C27.2653 16.9234 27.3074 16.8943 27.3425 16.8579C27.6567 16.5437 27.8916 16.1738 28.0601 15.7796C28.4979 16.2007 28.8158 16.7307 28.9812 17.3151C29.1467 17.8996 29.1538 18.5175 29.0017 19.1056C28.8497 19.6937 28.544 20.2308 28.1161 20.6619C27.6881 21.0929 27.1532 21.4024 26.5662 21.5586C26.5178 21.5717 26.4724 21.5941 26.4326 21.6246C26.3929 21.6552 26.3595 21.6933 26.3345 21.7367C26.2839 21.8245 26.2703 21.9287 26.2966 22.0265C26.3229 22.1243 26.387 22.2076 26.4747 22.2582C26.5624 22.3087 26.6667 22.3224 26.7645 22.2961C27.0512 22.2198 27.3197 22.1031 27.5774 21.9712C27.5905 22.3447 27.5249 22.7167 27.3848 23.0632C27.2448 23.4096 27.0334 23.7228 26.7645 23.9822C26.4328 24.2999 26.025 24.5268 25.5802 24.6412C25.1354 24.7555 24.6687 24.7534 24.225 24.635C24.1279 24.6108 24.0253 24.6257 23.9391 24.6765C23.8529 24.7273 23.7902 24.81 23.7644 24.9066C23.7386 25.0032 23.7518 25.1062 23.8011 25.1932C23.8505 25.2802 23.932 25.3443 24.0282 25.3717C24.1182 25.3961 24.209 25.4091 24.299 25.4251C24.0515 25.9841 23.6195 26.4411 23.0752 26.7194C22.5309 26.9978 21.9075 27.0806 21.3094 26.9539C20.7114 26.8273 20.175 26.4989 19.7903 26.0238C19.4056 25.5487 19.1959 24.9558 19.1963 24.3445V12.1427C19.1963 10.6647 20.3868 9.47355 21.8655 9.47355ZM15.7264 10.2362C15.6253 10.2412 15.5303 10.2862 15.4624 10.3613C15.3945 10.4364 15.3591 10.5354 15.3642 10.6365C15.3693 10.7377 15.4143 10.8326 15.4894 10.9006C15.5645 10.9685 15.6634 11.0038 15.7646 10.9988C16.4006 10.9988 16.9085 11.5059 16.9085 12.1427C16.9085 12.2438 16.9487 12.3408 17.0202 12.4123C17.0917 12.4838 17.1887 12.524 17.2898 12.524C17.3909 12.524 17.4879 12.4838 17.5594 12.4123C17.6309 12.3408 17.6711 12.2438 17.6711 12.1427C17.6711 11.0941 16.8132 10.2362 15.7646 10.2362C15.7519 10.2355 15.7391 10.2355 15.7264 10.2362ZM21.8655 10.2362C21.3603 10.2378 20.8763 10.4392 20.5191 10.7963C20.1619 11.1535 19.9605 11.6375 19.9589 12.1427C19.9589 12.2438 19.9991 12.3408 20.0706 12.4123C20.1421 12.4838 20.2391 12.524 20.3402 12.524C20.4414 12.524 20.5384 12.4838 20.6099 12.4123C20.6814 12.3408 20.7215 12.2438 20.7215 12.1427C20.7215 11.5059 21.2294 10.9988 21.8655 10.9988C21.9666 10.9988 22.0636 10.9586 22.1351 10.8871C22.2066 10.8156 22.2468 10.7186 22.2468 10.6175C22.2468 10.5163 22.2066 10.4193 22.1351 10.3478C22.0636 10.2763 21.9666 10.2362 21.8655 10.2362ZM12.9376 13.1722C12.8767 13.1716 12.8165 13.1855 12.7621 13.2129C12.7077 13.2403 12.6607 13.2802 12.6249 13.3295C12.5892 13.3788 12.5657 13.4359 12.5566 13.4961C12.5474 13.5563 12.5528 13.6178 12.5723 13.6755C12.6516 13.9135 12.7645 14.1346 12.8911 14.3466C12.4524 14.2839 12.0066 14.2911 11.5702 14.368C11.4707 14.3862 11.3825 14.4432 11.325 14.5264C11.2675 14.6096 11.2454 14.7123 11.2636 14.8118C11.2818 14.9113 11.3388 14.9995 11.4221 15.057C11.5053 15.1145 11.608 15.1366 11.7075 15.1184C12.5094 14.9706 13.3377 15.113 14.0441 15.5203C14.0509 15.5246 14.0577 15.5286 14.0647 15.5325C14.0672 15.5335 14.0698 15.5346 14.0723 15.5355C14.0793 15.5393 14.0865 15.5429 14.0937 15.5462C14.0965 15.5473 14.0993 15.5483 14.1021 15.5493C14.1124 15.553 14.1228 15.5563 14.1333 15.5592C14.1354 15.5597 14.1374 15.5602 14.1395 15.5607C14.1483 15.5631 14.1572 15.5651 14.1661 15.5668C14.182 15.5704 14.198 15.5729 14.2142 15.5744C14.2614 15.577 14.3088 15.5708 14.3537 15.5561C14.3573 15.5552 14.3609 15.5542 14.3644 15.5531C14.385 15.5459 14.4049 15.537 14.4239 15.5264C14.427 15.5249 14.43 15.5234 14.4331 15.5218C14.4519 15.5107 14.4698 15.4979 14.4864 15.4837C14.4895 15.4812 14.4926 15.4786 14.4956 15.4761C14.5022 15.4697 14.5085 15.4631 14.5147 15.4562C14.5172 15.4537 14.5198 15.4512 14.5223 15.4486C14.5364 15.4324 14.5492 15.4151 14.5604 15.3967C14.5627 15.394 14.565 15.3912 14.5673 15.3884C14.5719 15.3804 14.5762 15.3722 14.5802 15.364C14.5818 15.3612 14.5833 15.3584 14.5848 15.3556C14.5943 15.3354 14.6019 15.3145 14.6077 15.293C14.6085 15.29 14.6093 15.2869 14.61 15.2839C14.6124 15.2746 14.6144 15.2651 14.6161 15.2557C14.6166 15.2521 14.6171 15.2486 14.6176 15.245C14.6205 15.2233 14.6215 15.2013 14.6207 15.1794C14.6207 15.1758 14.6207 15.1723 14.6207 15.1687C14.62 15.1593 14.619 15.1499 14.6176 15.1405C14.6171 15.1377 14.6166 15.1349 14.6161 15.1321C14.6105 15.0976 14.6003 15.064 14.5856 15.0322C14.5838 15.0291 14.5821 15.0261 14.5802 15.0231C14.5762 15.0145 14.5719 15.0061 14.5673 14.9979C14.5658 14.9953 14.5643 14.9928 14.5627 14.9903C14.5574 14.9822 14.5518 14.9743 14.5459 14.9666C14.5442 14.9641 14.5424 14.9615 14.5406 14.959C14.5348 14.9511 14.5287 14.9435 14.5223 14.9361C14.5203 14.9336 14.5182 14.931 14.5162 14.9285C14.5096 14.9219 14.5027 14.9155 14.4956 14.9094C14.4931 14.9076 14.4905 14.9058 14.488 14.9041C14.4806 14.8977 14.4729 14.8916 14.4651 14.8858C14.4628 14.8837 14.4605 14.8817 14.4582 14.8797C14.4505 14.8743 14.4426 14.8692 14.4346 14.8644C13.8986 14.5365 13.4957 14.0298 13.2968 13.4338C13.2719 13.358 13.2238 13.2919 13.1594 13.2448C13.0949 13.1978 13.0174 13.1721 12.9376 13.1714V13.1722ZM24.6925 13.1722C24.6129 13.173 24.5356 13.1986 24.4713 13.2455C24.407 13.2924 24.359 13.3582 24.334 13.4338C24.1351 14.0302 23.7318 14.5372 23.1955 14.8652C23.1919 14.8677 23.1883 14.8702 23.1848 14.8728C23.1804 14.8753 23.1761 14.8778 23.1718 14.8805C23.1692 14.8822 23.1667 14.884 23.1642 14.8858C23.1563 14.8916 23.1487 14.8977 23.1413 14.9041C23.1369 14.9081 23.1326 14.9121 23.1283 14.9163C23.1231 14.9205 23.1181 14.9248 23.1131 14.9293C23.1113 14.9318 23.1095 14.9343 23.1078 14.9369C23.1014 14.9443 23.0953 14.9519 23.0894 14.9598C23.0841 14.9665 23.079 14.9733 23.0742 14.9804C23.0715 14.9854 23.069 14.9905 23.0666 14.9956C23.0623 15.0016 23.0583 15.0077 23.0544 15.0139C23.0522 15.0185 23.0502 15.023 23.0483 15.0276C23.0467 15.0302 23.0452 15.0327 23.0437 15.0353C23.0289 15.0675 23.0186 15.1016 23.0132 15.1367C23.0128 15.1418 23.0126 15.1469 23.0124 15.1519C23.0113 15.1578 23.0103 15.1636 23.0094 15.1695C23.0093 15.1728 23.0093 15.1761 23.0094 15.1794C23.0086 15.2034 23.0102 15.2274 23.014 15.2511C23.0149 15.2562 23.0159 15.2613 23.017 15.2663C23.0179 15.2722 23.0189 15.2781 23.0201 15.2839C23.021 15.2869 23.022 15.29 23.0231 15.293C23.0293 15.3167 23.0377 15.3396 23.0483 15.3617C23.0507 15.3655 23.0533 15.3693 23.0559 15.3731C23.0583 15.3782 23.0609 15.3833 23.0635 15.3884C23.0653 15.3912 23.067 15.394 23.0689 15.3967C23.0803 15.4154 23.0933 15.433 23.1078 15.4494C23.1103 15.4519 23.1128 15.4545 23.1154 15.457C23.1215 15.4636 23.1279 15.4699 23.1344 15.4761C23.1375 15.4786 23.1405 15.4812 23.1436 15.4837C23.1603 15.4979 23.1781 15.5107 23.197 15.5218C23.2 15.5234 23.2031 15.5249 23.2061 15.5264C23.2289 15.539 23.2529 15.5492 23.2778 15.5569C23.3224 15.5712 23.3692 15.5771 23.4158 15.5744C23.432 15.5729 23.4481 15.5704 23.4639 15.5668C23.4729 15.5651 23.4818 15.5631 23.4906 15.5607C23.4942 15.5597 23.4977 15.5587 23.5013 15.5577C23.5103 15.5552 23.5192 15.5524 23.528 15.5493C23.531 15.5483 23.5341 15.5473 23.5371 15.5462C23.5456 15.5425 23.554 15.5384 23.5623 15.534C23.5651 15.5325 23.5679 15.531 23.5707 15.5294C23.5758 15.5265 23.5809 15.5235 23.5859 15.5203L23.592 15.518C23.593 15.5175 23.594 15.517 23.5951 15.5165C24.2994 15.1126 25.1241 14.9716 25.9225 15.1184C25.9718 15.1274 26.0224 15.1266 26.0714 15.1161C26.1203 15.1056 26.1667 15.0855 26.208 15.057C26.2492 15.0286 26.2844 14.9923 26.3116 14.9502C26.3387 14.9081 26.3574 14.8611 26.3664 14.8118C26.3754 14.7626 26.3746 14.712 26.3641 14.663C26.3536 14.614 26.3335 14.5676 26.305 14.5264C26.2766 14.4852 26.2403 14.45 26.1982 14.4228C26.1561 14.3956 26.1091 14.377 26.0598 14.368C25.6234 14.2911 25.1776 14.2839 24.739 14.3466C24.8656 14.1346 24.9784 13.9135 25.0577 13.6755C25.0772 13.6178 25.0826 13.5563 25.0735 13.4961C25.0643 13.4359 25.0409 13.3788 25.0051 13.3295C24.9693 13.2802 24.9223 13.2403 24.8679 13.2129C24.8135 13.1855 24.7533 13.1716 24.6925 13.1722ZM16.1512 14.6166C16.0851 14.6191 16.0208 14.6389 15.9646 14.6738C15.9084 14.7087 15.8623 14.7577 15.8307 14.8158C15.7992 14.874 15.7833 14.9394 15.7847 15.0055C15.7861 15.0717 15.8046 15.1363 15.8385 15.1931C16.091 15.6293 16.1923 16.1366 16.1266 16.6363C16.061 17.136 15.8321 17.5999 15.4755 17.9561C15.4391 17.9912 15.4101 18.0333 15.3901 18.0798C15.3701 18.1264 15.3596 18.1764 15.3592 18.227C15.3587 18.2777 15.3684 18.3279 15.3875 18.3747C15.4067 18.4216 15.435 18.4642 15.4708 18.5C15.5066 18.5358 15.5492 18.5641 15.5961 18.5832C15.6429 18.6024 15.6931 18.6121 15.7438 18.6116C15.7944 18.6112 15.8444 18.6007 15.8909 18.5807C15.9375 18.5607 15.9795 18.5317 16.0147 18.4952C16.4892 18.02 16.7939 17.4016 16.8817 16.7358C16.9695 16.07 16.8355 15.3939 16.5005 14.8118C16.4661 14.7502 16.4154 14.6994 16.3538 14.6649C16.2923 14.6305 16.2224 14.6137 16.152 14.6166H16.1512ZM21.4392 14.6166C21.3753 14.6206 21.3135 14.6405 21.2594 14.6746C21.2053 14.7087 21.1606 14.7559 21.1295 14.8118C20.7945 15.3939 20.6605 16.07 20.7484 16.7358C20.8362 17.4016 21.1409 18.02 21.6153 18.4952C21.6505 18.5317 21.6926 18.5607 21.7391 18.5807C21.7856 18.6007 21.8356 18.6112 21.8863 18.6116C21.9369 18.6121 21.9871 18.6024 22.034 18.5832C22.0808 18.5641 22.1234 18.5358 22.1592 18.5C22.195 18.4642 22.2233 18.4216 22.2425 18.3747C22.2617 18.3279 22.2713 18.2777 22.2709 18.227C22.2704 18.1764 22.2599 18.1264 22.2399 18.0798C22.22 18.0333 22.1909 17.9912 22.1545 17.9561C21.7978 17.6 21.5688 17.1361 21.503 16.6364C21.4372 16.1368 21.5384 15.6294 21.7907 15.1931C21.8246 15.1363 21.8432 15.0717 21.8446 15.0055C21.846 14.9394 21.8301 14.874 21.7985 14.8158C21.767 14.7577 21.7209 14.7087 21.6647 14.6738C21.6085 14.6389 21.5442 14.6191 21.4781 14.6166C21.4654 14.616 21.4519 14.616 21.4392 14.6166ZM9.76283 18.1658C9.7501 18.1657 9.73737 18.1662 9.7247 18.1673C9.66842 18.1717 9.61382 18.1886 9.56484 18.2166C9.51587 18.2447 9.47373 18.2833 9.44148 18.3296C9.40923 18.3759 9.38767 18.4289 9.37836 18.4845C9.36905 18.5402 9.37221 18.5973 9.38762 18.6516C9.52612 19.1692 9.79833 19.6413 10.1769 20.0205C10.2121 20.0569 10.2542 20.0859 10.3007 20.1059C10.3472 20.1259 10.3973 20.1364 10.4479 20.1368C10.4985 20.1373 10.5487 20.1276 10.5956 20.1085C10.6424 20.0893 10.685 20.061 10.7208 20.0252C10.7566 19.9894 10.7849 19.9468 10.8041 19.8999C10.8233 19.8531 10.8329 19.8029 10.8325 19.7522C10.832 19.7016 10.8215 19.6516 10.8015 19.6051C10.7816 19.5585 10.7525 19.5165 10.7161 19.4813C10.432 19.197 10.2276 18.843 10.1235 18.4548C10.1034 18.3738 10.0571 18.3016 9.99197 18.2494C9.92681 18.1972 9.84631 18.1678 9.76283 18.1658ZM27.8687 18.1658C27.7852 18.1679 27.7046 18.1974 27.6394 18.2497C27.5742 18.3021 27.5281 18.3744 27.508 18.4556C27.4038 18.8435 27.1995 19.1972 26.9155 19.4813C26.879 19.5165 26.85 19.5585 26.83 19.6051C26.81 19.6516 26.7995 19.7016 26.7991 19.7522C26.7986 19.8029 26.8083 19.8531 26.8275 19.8999C26.8466 19.9468 26.8749 19.9894 26.9107 20.0252C26.9465 20.061 26.9891 20.0893 27.036 20.1085C27.0828 20.1276 27.1331 20.1373 27.1837 20.1368C27.2343 20.1364 27.2843 20.1259 27.3309 20.1059C27.3774 20.0859 27.4195 20.0569 27.4546 20.0205C27.8332 19.6413 28.1054 19.1692 28.2439 18.6516C28.2593 18.5973 28.2625 18.5403 28.2533 18.4847C28.244 18.4291 28.2225 18.3762 28.1903 18.3299C28.1582 18.2836 28.1161 18.245 28.0672 18.2169C28.0183 18.1887 27.9638 18.1718 27.9076 18.1673C27.8949 18.1662 27.8815 18.1657 27.8687 18.1658ZM15.005 21.6761C14.9703 21.6757 14.9356 21.6801 14.9021 21.689C14.9016 21.689 14.901 21.689 14.9005 21.689C14.8975 21.69 14.8944 21.691 14.8914 21.6921C14.8824 21.6948 14.8735 21.6979 14.8647 21.7013C14.8457 21.7087 14.8273 21.7176 14.8098 21.7279C14.8088 21.7284 14.8077 21.729 14.8067 21.7295C14.1003 22.1367 13.272 22.2792 12.4701 22.1314C12.3703 22.1132 12.2673 22.1354 12.1839 22.1931C12.1004 22.2508 12.0433 22.3393 12.0251 22.4391C12.0069 22.5389 12.0291 22.6418 12.0868 22.7253C12.1445 22.8087 12.233 22.8659 12.3328 22.8841C12.7729 22.9649 13.2175 22.9618 13.6537 22.9031C13.5232 23.1153 13.4163 23.3411 13.3349 23.5765C13.3191 23.6241 13.3128 23.6743 13.3164 23.7243C13.3199 23.7743 13.3333 23.8231 13.3558 23.8679C13.3782 23.9128 13.4093 23.9527 13.4472 23.9856C13.4851 24.0184 13.5291 24.0434 13.5766 24.0592C13.6727 24.0912 13.7775 24.0837 13.8681 24.0383C13.9586 23.993 14.0274 23.9136 14.0594 23.8175C14.2569 23.2249 14.6565 22.7193 15.188 22.3914C15.1901 22.3897 15.1921 22.3879 15.1941 22.3861C15.1949 22.3861 15.1964 22.3861 15.1972 22.3845C15.2053 22.3798 15.2131 22.3747 15.2208 22.3693C15.2234 22.3675 15.2259 22.3658 15.2285 22.364C15.2363 22.3584 15.2439 22.3526 15.2513 22.3464C15.2536 22.3444 15.2559 22.3424 15.2582 22.3403C15.2653 22.334 15.2722 22.3274 15.2788 22.3205C15.2793 22.32 15.2798 22.3195 15.2803 22.319C15.3313 22.2649 15.3653 22.1972 15.3783 22.124C15.3913 22.0509 15.3826 21.9756 15.3534 21.9073C15.3242 21.839 15.2756 21.7807 15.2137 21.7397C15.1518 21.6986 15.0793 21.6765 15.005 21.6761ZM22.6082 21.6761C22.5353 21.6795 22.4649 21.7037 22.4054 21.746C22.3458 21.7882 22.2997 21.8467 22.2724 21.9143C22.2451 21.982 22.2378 22.0562 22.2513 22.1279C22.2649 22.1996 22.2988 22.2659 22.349 22.319C22.3497 22.3195 22.3505 22.32 22.3512 22.3205C22.3538 22.3226 22.3563 22.3246 22.3589 22.3266C22.3721 22.3404 22.3864 22.3531 22.4016 22.3647C22.4126 22.3724 22.4241 22.3796 22.4359 22.3861C22.9706 22.715 23.3724 23.2218 23.5707 23.8175C23.5865 23.8651 23.6115 23.9091 23.6443 23.9469C23.6772 23.9848 23.7171 24.0159 23.762 24.0383C23.8068 24.0608 23.8556 24.0742 23.9056 24.0778C23.9556 24.0814 24.0058 24.0751 24.0534 24.0592C24.101 24.0434 24.1449 24.0184 24.1828 23.9856C24.2207 23.9527 24.2518 23.9128 24.2742 23.8679C24.2967 23.8231 24.3101 23.7743 24.3137 23.7243C24.3173 23.6743 24.311 23.6241 24.2951 23.5765C24.2137 23.3411 24.1068 23.1153 23.9764 22.9031C24.4126 22.9618 24.8572 22.9641 25.2972 22.8841C25.3466 22.875 25.3938 22.8564 25.436 22.8291C25.4782 22.8019 25.5147 22.7666 25.5432 22.7253C25.5718 22.684 25.592 22.6374 25.6025 22.5883C25.6131 22.5392 25.6139 22.4885 25.6049 22.4391C25.5959 22.3897 25.5772 22.3425 25.55 22.3003C25.5228 22.2581 25.4875 22.2216 25.4462 22.1931C25.4048 22.1645 25.3583 22.1443 25.3092 22.1337C25.2601 22.1232 25.2094 22.1223 25.1599 22.1314C24.358 22.2792 23.5297 22.1367 22.8233 21.7295C22.8223 21.729 22.8213 21.7284 22.8202 21.7279C22.8027 21.7176 22.7843 21.7087 22.7653 21.7013C22.7566 21.6979 22.7477 21.6948 22.7386 21.6921C22.7351 21.691 22.7315 21.69 22.728 21.689C22.7275 21.689 22.727 21.689 22.7264 21.689C22.7025 21.6829 22.678 21.679 22.6532 21.6776C22.6385 21.6762 22.623 21.6757 22.6082 21.6761ZM17.2837 23.9593C17.1828 23.9609 17.0867 24.0025 17.0164 24.0748C16.9461 24.1471 16.9073 24.2444 16.9085 24.3452C16.9085 24.9812 16.4006 25.4891 15.7646 25.4891C15.6634 25.4891 15.5665 25.5293 15.495 25.6008C15.4234 25.6723 15.3833 25.7693 15.3833 25.8704C15.3833 25.9716 15.4234 26.0686 15.495 26.1401C15.5665 26.2116 15.6634 26.2517 15.7646 26.2517C16.8132 26.2517 17.6711 25.3938 17.6711 24.3452C17.6717 24.2942 17.6621 24.2437 17.6428 24.1965C17.6236 24.1493 17.595 24.1064 17.5589 24.0704C17.5228 24.0345 17.4798 24.0061 17.4326 23.987C17.3853 23.9679 17.3347 23.9585 17.2837 23.9593ZM20.309 23.9593C20.2126 23.9673 20.1228 24.0115 20.0578 24.0832C19.9928 24.1548 19.9574 24.2485 19.9589 24.3452C19.9589 25.3938 20.8169 26.2517 21.8655 26.2517C21.9666 26.2517 22.0636 26.2116 22.1351 26.1401C22.2066 26.0686 22.2468 25.9716 22.2468 25.8704C22.2468 25.7693 22.2066 25.6723 22.1351 25.6008C22.0636 25.5293 21.9666 25.4891 21.8655 25.4891C21.2294 25.4891 20.7215 24.9812 20.7215 24.3452C20.7228 24.2444 20.684 24.1471 20.6136 24.0748C20.5433 24.0025 20.4472 23.9609 20.3463 23.9593C20.3339 23.9587 20.3214 23.9587 20.309 23.9593Z" fill="white"/>
</svg>
