<svg width="20" height="20" viewBox="0 0 20 20" fill="none" xmlns="http://www.w3.org/2000/svg">
<path d="M18.4782 9.73101C18.2203 9.73101 17.9729 9.83348 17.7905 10.0159C17.6081 10.1983 17.5057 10.4456 17.5057 10.7036V16.5388C17.5057 16.7967 17.4032 17.0441 17.2208 17.2265C17.0384 17.4089 16.7911 17.5113 16.5331 17.5113H2.91761C2.65968 17.5113 2.41231 17.4089 2.22993 17.2265C2.04754 17.0441 1.94508 16.7967 1.94508 16.5388V2.92325C1.94508 2.66532 2.04754 2.41795 2.22993 2.23556C2.41231 2.05318 2.65968 1.95071 2.91761 1.95071H8.75284C9.01077 1.95071 9.25814 1.84825 9.44053 1.66586C9.62291 1.48348 9.72538 1.23611 9.72538 0.978177C9.72538 0.720244 9.62291 0.472875 9.44053 0.290489C9.25814 0.108103 9.01077 0.0056391 8.75284 0.0056391H2.91761C2.14381 0.0056391 1.40171 0.31303 0.854549 0.860188C0.307391 1.40735 0 2.14945 0 2.92325V16.5388C0 17.3126 0.307391 18.0547 0.854549 18.6018C1.40171 19.149 2.14381 19.4564 2.91761 19.4564H16.5331C17.3069 19.4564 18.049 19.149 18.5962 18.6018C19.1434 18.0547 19.4508 17.3126 19.4508 16.5388V10.7036C19.4508 10.4456 19.3483 10.1983 19.1659 10.0159C18.9835 9.83348 18.7361 9.73101 18.4782 9.73101ZM3.89015 10.4701V14.5937C3.89015 14.8516 3.99261 15.099 4.175 15.2814C4.35739 15.4638 4.60475 15.5662 4.86269 15.5662H8.98625C9.11424 15.567 9.24112 15.5424 9.35961 15.4941C9.4781 15.4457 9.58587 15.3743 9.67675 15.2842L16.4067 8.54452L19.1687 5.84086C19.2599 5.75045 19.3322 5.64289 19.3816 5.52438C19.431 5.40587 19.4564 5.27875 19.4564 5.15036C19.4564 5.02198 19.431 4.89486 19.3816 4.77635C19.3322 4.65783 19.2599 4.55027 19.1687 4.45986L15.0452 0.287675C14.9547 0.196521 14.8472 0.124169 14.7287 0.0747949C14.6102 0.0254204 14.483 0 14.3547 0C14.2263 0 14.0992 0.0254204 13.9806 0.0747949C13.8621 0.124169 13.7546 0.196521 13.6642 0.287675L10.9216 3.03996L4.17219 9.77964C4.08205 9.87052 4.01074 9.97829 3.96234 10.0968C3.91394 10.2153 3.88941 10.3422 3.89015 10.4701ZM14.3547 2.34945L17.1069 5.10174L15.7259 6.48274L12.9737 3.73046L14.3547 2.34945ZM5.83523 10.8689L11.6024 5.10174L14.3547 7.85402L8.58751 13.6212H5.83523V10.8689Z" fill="#553C9A"/>
</svg>
