<svg width="154" height="13" viewBox="0 0 154 13" fill="none" xmlns="http://www.w3.org/2000/svg">
<path d="M0.414 12L4.365 0.426H6.768L10.584 12H8.559L7.704 9.372H3.321L2.457 12H0.414ZM3.816 7.914H7.245L5.535 2.73L3.816 7.914ZM30.7319 12.243C29.7179 12.243 28.8359 11.997 28.0859 11.505C27.3359 11.013 26.7539 10.314 26.3399 9.408C25.9319 8.502 25.7279 7.422 25.7279 6.168C25.7279 4.866 25.9439 3.774 26.3759 2.892C26.8079 2.004 27.4019 1.335 28.1579 0.885C28.9139 0.428999 29.7719 0.200999 30.7319 0.200999C32.0519 0.200999 33.0899 0.524999 33.8459 1.173C34.6079 1.815 35.1029 2.649 35.3309 3.675L33.2699 4.062C33.0719 3.426 32.7539 2.913 32.3159 2.523C31.8839 2.133 31.3559 1.938 30.7319 1.938C30.1919 1.938 29.6999 2.097 29.2559 2.415C28.8119 2.727 28.4579 3.198 28.1939 3.828C27.9359 4.452 27.8069 5.232 27.8069 6.168C27.8069 7.044 27.9179 7.806 28.1399 8.454C28.3679 9.096 28.6979 9.594 29.1299 9.948C29.5679 10.302 30.1019 10.479 30.7319 10.479C31.5299 10.479 32.1509 10.266 32.5949 9.84C33.0449 9.414 33.2699 8.868 33.2699 8.202H35.3399C35.3399 9.054 35.1509 9.78 34.7729 10.38C34.4009 10.98 33.8699 11.442 33.1799 11.766C32.4959 12.084 31.6799 12.243 30.7319 12.243ZM56.0746 12.243C55.0666 12.243 54.1726 12.018 53.3926 11.568C52.6126 11.118 52.0006 10.446 51.5566 9.552C51.1126 8.658 50.8906 7.545 50.8906 6.213C50.8906 4.857 51.1126 3.735 51.5566 2.847C52.0006 1.959 52.6126 1.296 53.3926 0.858C54.1726 0.419999 55.0666 0.200999 56.0746 0.200999C57.0886 0.200999 57.9856 0.425999 58.7656 0.875999C59.5516 1.32 60.1636 1.989 60.6016 2.883C61.0456 3.771 61.2676 4.881 61.2676 6.213C61.2676 7.557 61.0456 8.679 60.6016 9.579C60.1636 10.473 59.5516 11.142 58.7656 11.586C57.9856 12.024 57.0886 12.243 56.0746 12.243ZM56.0746 10.488C57.0586 10.488 57.8386 10.122 58.4146 9.39C58.9906 8.652 59.2786 7.587 59.2786 6.195C59.2786 4.839 58.9906 3.789 58.4146 3.045C57.8386 2.301 57.0586 1.929 56.0746 1.929C55.1086 1.929 54.3346 2.304 53.7526 3.054C53.1766 3.798 52.8886 4.851 52.8886 6.213C52.8886 7.599 53.1766 8.658 53.7526 9.39C54.3346 10.122 55.1086 10.488 56.0746 10.488ZM79.634 0.426V10.317H84.512V12H77.708V0.426H79.634ZM97.4109 0.426H99.7059L102.622 5.574H102.217L105.223 0.426H107.5L103.36 7.23V12H101.434V7.23L97.4109 0.426ZM121.615 2.082V0.426H130.822V2.082H126.745L127.177 1.641V12H125.251V1.641L125.683 2.082H121.615ZM146.481 12V0.426H153.843V2.082H148.407V5.358H153.519V7.023H148.407V10.317H153.843V12H146.481Z" fill="url(#paint0_linear_2040_44812)"/>
<defs>
<linearGradient id="paint0_linear_2040_44812" x1="0" y1="6" x2="156" y2="6" gradientUnits="userSpaceOnUse">
<stop stop-color="#563E93"/>
<stop offset="1" stop-color="#169971"/>
</linearGradient>
</defs>
</svg>
