<svg width="377" height="161" viewBox="0 0 377 161" fill="none" xmlns="http://www.w3.org/2000/svg">
<g filter="url(#filter0_ddii_960_19899)">
<g clip-path="url(#clip0_960_19899)">
<rect x="4" y="8" width="369" height="145" rx="72.5" fill="#252D37"/>
<circle cx="295" cy="80" r="102" fill="white" fill-opacity="0.1"/>
<circle cx="295" cy="80" r="144" fill="white" fill-opacity="0.1"/>
<circle cx="295" cy="80" r="190" fill="white" fill-opacity="0.1"/>
<path d="M47.3087 68.4245C45.8534 69.946 44.0838 70.7563 42 70.8556C44.0838 70.9548 45.8534 71.7652 47.3087 73.3032C48.7641 74.8247 49.4917 76.6439 49.4917 78.7442C49.4917 77.355 49.8225 76.0816 50.484 74.8908C51.1621 73.7001 52.0717 72.7409 53.2128 72.0298C54.3705 71.3021 55.6273 70.9217 57 70.8556C54.8997 70.7398 53.1301 69.946 51.6748 68.4245C50.2194 66.903 49.4917 65.1003 49.4917 63C49.4917 65.1003 48.7641 66.903 47.3087 68.4245Z" fill="white"/>
<path d="M88.54 30.7698C85.6505 33.7907 82.1372 35.3996 78 35.5966C82.1372 35.7936 85.6505 37.4025 88.54 40.4561C91.4295 43.4769 92.8742 47.0888 92.8742 51.2588C92.8742 48.5007 93.5309 45.9724 94.8443 43.6083C96.1905 41.2442 97.9965 39.3397 100.262 37.9278C102.561 36.4831 105.056 35.7279 107.781 35.5966C103.611 35.3667 100.098 33.7907 97.2084 30.7698C94.3189 27.749 92.8742 24.17 92.8742 20C92.8742 24.17 91.4295 27.749 88.54 30.7698Z" fill="white"/>
<path d="M179.078 60.2326C177.138 62.2613 174.778 63.3418 172 63.4741C174.778 63.6064 177.138 64.6869 179.078 66.7376C181.019 68.7663 181.989 71.1918 181.989 73.9923C181.989 72.14 182.43 70.4421 183.312 68.8545C184.216 67.2668 185.429 65.9879 186.95 65.0397C188.494 64.0695 190.17 63.5623 192 63.4741C189.2 63.3197 186.84 62.2613 184.9 60.2326C182.959 58.204 181.989 55.8004 181.989 53C181.989 55.8004 181.019 58.204 179.078 60.2326Z" fill="white"/>
<path d="M133.77 47.8082C133.284 48.3153 132.695 48.5854 132 48.6185C132.695 48.6516 133.284 48.9217 133.77 49.4344C134.255 49.9416 134.497 50.548 134.497 51.2481C134.497 50.785 134.607 50.3605 134.828 49.9636C135.054 49.5667 135.357 49.247 135.738 49.0099C136.123 48.7674 136.542 48.6406 137 48.6185C136.3 48.5799 135.71 48.3153 135.225 47.8082C134.74 47.301 134.497 46.7001 134.497 46C134.497 46.7001 134.255 47.301 133.77 47.8082Z" fill="white"/>
<path d="M126.185 89.2547C125.312 90.1676 124.25 90.6538 123 90.7133C124.25 90.7729 125.312 91.2591 126.185 92.1819C127.058 93.0948 127.495 94.1863 127.495 95.4465C127.495 94.613 127.693 93.849 128.09 93.1345C128.497 92.4201 129.043 91.8445 129.728 91.4179C130.422 90.9813 131.176 90.753 132 90.7133C130.74 90.6439 129.678 90.1676 128.805 89.2547C127.932 88.3418 127.495 87.2602 127.495 86C127.495 87.2602 127.058 88.3418 126.185 89.2547Z" fill="white"/>
<path d="M195.185 107.255C194.312 108.168 193.25 108.654 192 108.713C193.25 108.773 194.312 109.259 195.185 110.182C196.058 111.095 196.495 112.186 196.495 113.447C196.495 112.613 196.693 111.849 197.09 111.135C197.497 110.42 198.043 109.845 198.728 109.418C199.422 108.981 200.176 108.753 201 108.713C199.74 108.644 198.678 108.168 197.805 107.255C196.932 106.342 196.495 105.26 196.495 104C196.495 105.26 196.058 106.342 195.185 107.255Z" fill="white"/>
<path d="M73.0783 100.983C71.1378 103.011 68.7784 104.092 66 104.224C68.7784 104.356 71.1378 105.437 73.0783 107.488C75.0187 109.516 75.989 111.942 75.989 114.742C75.989 112.89 76.43 111.192 77.312 109.604C78.2161 108.017 79.4289 106.738 80.9504 105.79C82.4939 104.819 84.1698 104.312 86 104.224C83.1996 104.07 80.8401 103.011 78.8997 100.983C76.9592 98.954 75.989 96.5504 75.989 93.75C75.989 96.5504 75.0187 98.954 73.0783 100.983Z" fill="white"/>
<path d="M155.663 126.786C154.11 128.409 152.223 129.273 150 129.379C152.223 129.485 154.11 130.35 155.663 131.99C157.215 133.613 157.991 135.553 157.991 137.794C157.991 136.312 158.344 134.954 159.05 133.684C159.773 132.413 160.743 131.39 161.96 130.632C163.195 129.856 164.536 129.45 166 129.379C163.76 129.256 161.872 128.409 160.32 126.786C158.767 125.163 157.991 123.24 157.991 121C157.991 123.24 157.215 125.163 155.663 126.786Z" fill="white"/>
<path d="M157.012 84.0336C156.734 84.3235 156.397 84.4779 156 84.4968C156.397 84.5158 156.734 84.6702 157.012 84.9632C157.289 85.2532 157.428 85.5998 157.428 86C157.428 85.7353 157.491 85.4926 157.617 85.2658C157.746 85.0389 157.919 84.8561 158.137 84.7206C158.357 84.5819 158.597 84.5095 158.858 84.4968C158.458 84.4748 158.121 84.3235 157.843 84.0336C157.566 83.7437 157.428 83.4002 157.428 83C157.428 83.4002 157.289 83.7437 157.012 84.0336Z" fill="white"/>
</g>
</g>
<defs>
<filter id="filter0_ddii_960_19899" x="0" y="0" width="377" height="161" filterUnits="userSpaceOnUse" color-interpolation-filters="sRGB">
<feFlood flood-opacity="0" result="BackgroundImageFix"/>
<feColorMatrix in="SourceAlpha" type="matrix" values="0 0 0 0 0 0 0 0 0 0 0 0 0 0 0 0 0 0 127 0" result="hardAlpha"/>
<feOffset dy="4"/>
<feGaussianBlur stdDeviation="2"/>
<feComposite in2="hardAlpha" operator="out"/>
<feColorMatrix type="matrix" values="0 0 0 0 1 0 0 0 0 1 0 0 0 0 1 0 0 0 0.94 0"/>
<feBlend mode="normal" in2="BackgroundImageFix" result="effect1_dropShadow_960_19899"/>
<feColorMatrix in="SourceAlpha" type="matrix" values="0 0 0 0 0 0 0 0 0 0 0 0 0 0 0 0 0 0 127 0" result="hardAlpha"/>
<feOffset dy="-4"/>
<feGaussianBlur stdDeviation="2"/>
<feComposite in2="hardAlpha" operator="out"/>
<feColorMatrix type="matrix" values="0 0 0 0 0 0 0 0 0 0 0 0 0 0 0 0 0 0 0.25 0"/>
<feBlend mode="normal" in2="effect1_dropShadow_960_19899" result="effect2_dropShadow_960_19899"/>
<feBlend mode="normal" in="SourceGraphic" in2="effect2_dropShadow_960_19899" result="shape"/>
<feColorMatrix in="SourceAlpha" type="matrix" values="0 0 0 0 0 0 0 0 0 0 0 0 0 0 0 0 0 0 127 0" result="hardAlpha"/>
<feOffset dy="7"/>
<feGaussianBlur stdDeviation="4.5"/>
<feComposite in2="hardAlpha" operator="arithmetic" k2="-1" k3="1"/>
<feColorMatrix type="matrix" values="0 0 0 0 0 0 0 0 0 0 0 0 0 0 0 0 0 0 0.25 0"/>
<feBlend mode="normal" in2="shape" result="effect3_innerShadow_960_19899"/>
<feColorMatrix in="SourceAlpha" type="matrix" values="0 0 0 0 0 0 0 0 0 0 0 0 0 0 0 0 0 0 127 0" result="hardAlpha"/>
<feOffset dy="-5"/>
<feGaussianBlur stdDeviation="7"/>
<feComposite in2="hardAlpha" operator="arithmetic" k2="-1" k3="1"/>
<feColorMatrix type="matrix" values="0 0 0 0 0 0 0 0 0 0 0 0 0 0 0 0 0 0 0.25 0"/>
<feBlend mode="normal" in2="effect3_innerShadow_960_19899" result="effect4_innerShadow_960_19899"/>
</filter>
<clipPath id="clip0_960_19899">
<rect x="4" y="8" width="369" height="145" rx="72.5" fill="white"/>
</clipPath>
</defs>
</svg>
