<svg width="137" height="108" viewBox="0 0 137 108" fill="none" xmlns="http://www.w3.org/2000/svg">
<path d="M4.68359 11.3303C4.68359 5.07274 9.75634 0 16.0139 0H39.4838C40.3777 0 41.1024 0.724678 41.1024 1.61861V26.7071H4.68359V11.3303Z" fill="#84794E"/>
<path d="M4.68359 9.71379C4.68359 7.92592 6.13295 6.47656 7.92082 6.47656H120.415C126.672 6.47656 131.745 11.5493 131.745 17.8069V88.2166C131.745 94.4741 126.672 99.5469 120.415 99.5469H4.68359V9.71379Z" fill="#84794E"/>
<path d="M40.2933 8.09028L40.2933 -0.00192819L49.4745 8.0774L40.2933 8.09028Z" fill="#84794E"/>
<rect x="4.68359" y="14.5703" width="127.061" height="93.0703" rx="11.3303" fill="white"/>
<path d="M3.06445 29.5291C3.06445 23.0539 8.31365 17.8047 14.7889 17.8047H122.547C129.128 17.8047 134.42 23.2204 134.268 29.7999L132.818 92.5423C132.671 98.9103 127.467 103.996 121.097 103.996H14.7889C8.31365 103.996 3.06445 98.7467 3.06445 92.2715V29.5291Z" fill="#ECECEC"/>
<path d="M2.36698 32.8735C2.30578 26.3556 7.57263 21.0391 14.0909 21.0391H123.271C129.897 21.0391 135.207 26.526 134.989 33.1486L132.927 95.891C132.719 102.213 127.534 107.23 121.209 107.23H14.68C8.24774 107.23 3.01651 102.048 2.95611 95.616L2.36698 32.8735Z" fill="#B0B0B0"/>
<path d="M0.529648 36.9985C0.240764 30.0579 5.78949 24.2734 12.7361 24.2734H124.118C131.122 24.2734 136.691 30.1486 136.318 37.1419L133.172 96.0665C132.825 102.551 127.466 107.632 120.972 107.632H15.1887C8.63904 107.632 3.25461 102.467 2.98223 95.9231L0.529648 36.9985Z" fill="white"/>
<path d="M1.44629 52.6016H135.387L134.173 78.4994H2.2556L1.44629 52.6016Z" fill="#FDEAA5"/>
</svg>
