<svg width="377" height="161" viewBox="0 0 377 161" fill="none" xmlns="http://www.w3.org/2000/svg">
<g filter="url(#filter0_ddii_960_19977)">
<g clip-path="url(#clip0_960_19977)">
<rect x="4" y="8" width="369" height="145" rx="72.5" fill="#117AF5"/>
<circle cx="77" cy="80" r="102" fill="white" fill-opacity="0.1"/>
<circle cx="77" cy="80" r="144" fill="white" fill-opacity="0.1"/>
<circle cx="77" cy="80" r="190" fill="white" fill-opacity="0.1"/>
<path fill-rule="evenodd" clip-rule="evenodd" d="M395.985 39.0268C397.087 63.189 381.832 84.3095 360.001 91.6699C363.089 97.9887 364.961 105.029 365.302 112.502C366.636 141.743 344.014 166.528 314.773 167.863C301.549 168.466 289.235 164.169 279.59 156.576C277.087 175.404 261.402 190.319 241.762 191.215C228.602 191.816 216.637 185.987 208.909 176.503C203.663 179.43 197.676 181.215 191.267 181.507C186.302 181.734 181.507 181.045 177.045 179.59C173.608 197.303 158.419 211.035 139.598 211.894C126.101 212.51 113.862 206.363 106.16 196.446C100.587 199.862 94.097 201.958 87.1054 202.277C70.4782 203.036 55.7595 193.531 49.0815 179.359C42.9553 183.831 35.4909 186.614 27.3462 186.985C5.27778 187.992 -13.4286 170.919 -14.4356 148.85C-15.4427 126.782 1.63091 108.076 23.6993 107.068C40.3266 106.31 55.0453 115.815 61.7233 129.987C67.8495 125.514 75.3138 122.732 83.4585 122.36C96.9555 121.744 109.195 127.891 116.897 137.808C122.47 134.392 128.96 132.296 135.952 131.977C140.917 131.751 145.712 132.439 150.173 133.894C153.611 116.182 168.799 102.449 187.62 101.59C200.78 100.99 212.745 106.819 220.473 116.303C225.719 113.376 231.706 111.591 238.115 111.299C245.814 110.947 253.103 112.796 259.375 116.29C258.751 92.5652 273.88 71.945 295.396 64.6909C292.308 58.372 290.436 51.3316 290.095 43.8589C288.76 14.6182 311.383 -10.1677 340.624 -11.5021C369.864 -12.8364 394.65 9.78614 395.985 39.0268Z" fill="#F3FDFF" fill-opacity="0.6"/>
<path fill-rule="evenodd" clip-rule="evenodd" d="M426 69C426 93.1874 409.798 113.59 387.654 119.948C390.45 126.401 392 133.52 392 141C392 170.271 368.271 194 339 194C325.762 194 313.657 189.146 304.368 181.121C301.009 199.815 284.661 214 265 214C251.826 214 240.14 207.632 232.852 197.805C227.478 200.49 221.415 202 215 202C210.03 202 205.271 201.093 200.88 199.437C196.639 216.974 180.841 230 162 230C148.489 230 136.543 223.301 129.301 213.044C123.578 216.202 116.999 218 110 218C93.3555 218 79.0854 207.834 73.0604 193.372C66.7366 197.561 59.1532 200 51 200C28.9086 200 11 182.091 11 160C11 137.909 28.9086 120 51 120C67.6445 120 81.9146 130.166 87.9396 144.628C94.2634 140.439 101.847 138 110 138C123.511 138 135.457 144.699 142.699 154.956C148.422 151.798 155.001 150 162 150C166.97 150 171.729 150.907 176.12 152.563C180.361 135.026 196.159 122 215 122C228.174 122 239.86 128.368 247.148 138.195C252.522 135.51 258.585 134 265 134C272.707 134 279.904 136.179 286.01 139.956C286.469 116.227 302.522 96.3178 324.346 90.052C321.55 83.599 320 76.4805 320 69C320 39.7289 343.729 16 373 16C402.271 16 426 39.7289 426 69Z" fill="#F3FDFF"/>
</g>
</g>
<defs>
<filter id="filter0_ddii_960_19977" x="0" y="0" width="377" height="161" filterUnits="userSpaceOnUse" color-interpolation-filters="sRGB">
<feFlood flood-opacity="0" result="BackgroundImageFix"/>
<feColorMatrix in="SourceAlpha" type="matrix" values="0 0 0 0 0 0 0 0 0 0 0 0 0 0 0 0 0 0 127 0" result="hardAlpha"/>
<feOffset dy="4"/>
<feGaussianBlur stdDeviation="2"/>
<feComposite in2="hardAlpha" operator="out"/>
<feColorMatrix type="matrix" values="0 0 0 0 1 0 0 0 0 1 0 0 0 0 1 0 0 0 0.94 0"/>
<feBlend mode="normal" in2="BackgroundImageFix" result="effect1_dropShadow_960_19977"/>
<feColorMatrix in="SourceAlpha" type="matrix" values="0 0 0 0 0 0 0 0 0 0 0 0 0 0 0 0 0 0 127 0" result="hardAlpha"/>
<feOffset dy="-4"/>
<feGaussianBlur stdDeviation="2"/>
<feComposite in2="hardAlpha" operator="out"/>
<feColorMatrix type="matrix" values="0 0 0 0 0 0 0 0 0 0 0 0 0 0 0 0 0 0 0.25 0"/>
<feBlend mode="normal" in2="effect1_dropShadow_960_19977" result="effect2_dropShadow_960_19977"/>
<feBlend mode="normal" in="SourceGraphic" in2="effect2_dropShadow_960_19977" result="shape"/>
<feColorMatrix in="SourceAlpha" type="matrix" values="0 0 0 0 0 0 0 0 0 0 0 0 0 0 0 0 0 0 127 0" result="hardAlpha"/>
<feOffset dy="7"/>
<feGaussianBlur stdDeviation="4.5"/>
<feComposite in2="hardAlpha" operator="arithmetic" k2="-1" k3="1"/>
<feColorMatrix type="matrix" values="0 0 0 0 0 0 0 0 0 0 0 0 0 0 0 0 0 0 0.25 0"/>
<feBlend mode="normal" in2="shape" result="effect3_innerShadow_960_19977"/>
<feColorMatrix in="SourceAlpha" type="matrix" values="0 0 0 0 0 0 0 0 0 0 0 0 0 0 0 0 0 0 127 0" result="hardAlpha"/>
<feOffset dy="-5"/>
<feGaussianBlur stdDeviation="7"/>
<feComposite in2="hardAlpha" operator="arithmetic" k2="-1" k3="1"/>
<feColorMatrix type="matrix" values="0 0 0 0 0 0 0 0 0 0 0 0 0 0 0 0 0 0 0.25 0"/>
<feBlend mode="normal" in2="effect3_innerShadow_960_19977" result="effect4_innerShadow_960_19977"/>
</filter>
<clipPath id="clip0_960_19977">
<rect x="4" y="8" width="369" height="145" rx="72.5" fill="white"/>
</clipPath>
</defs>
</svg>
