<svg width="54" height="43" viewBox="0 0 54 43" fill="none" xmlns="http://www.w3.org/2000/svg">
<path d="M2.75684 5.21537C2.75684 2.81866 4.69976 0.875732 7.09647 0.875732H16.0857C16.4281 0.875732 16.7057 1.15329 16.7057 1.49568V11.1049H2.75684V5.21537Z" fill="#369BD5"/>
<path d="M2.75684 4.60781C2.75684 3.92304 3.31196 3.36792 3.99673 3.36792H47.0831C49.4798 3.36792 51.4227 5.31084 51.4227 7.70755V34.6753C51.4227 37.072 49.4798 39.0149 47.0831 39.0149H2.75684V4.60781Z" fill="#369BD5"/>
<path d="M16.3877 3.98265L16.3877 0.883237L19.9043 3.97771L16.3877 3.98265Z" fill="#369BD5"/>
<rect x="2.75293" y="6.47729" width="48.6659" height="35.647" rx="4.33963" fill="#71C2E5"/>
<path d="M2.13184 12.2023C2.13184 9.72217 4.14234 7.71167 6.62241 7.71167H47.8949C50.4156 7.71167 52.4425 9.78597 52.3843 12.306L51.829 36.337C51.7727 38.7761 49.7793 40.7239 47.3396 40.7239H6.62241C4.14233 40.7239 2.13184 38.7134 2.13184 36.2333V12.2023Z" fill="#369BD5"/>
<path d="M1.86971 13.4944C1.84627 10.998 3.86353 8.96167 6.36009 8.96167H48.1773C50.7152 8.96167 52.7488 11.0632 52.6654 13.5997L51.8757 37.6308C51.7961 40.0522 49.8102 41.9739 47.3875 41.9739H6.58573C4.12211 41.9739 2.11848 39.989 2.09535 37.5255L1.86971 13.4944Z" fill="#71C2E5"/>
<path d="M1.46647 15.0262C1.36292 12.5383 3.35189 10.4648 5.84194 10.4648H48.5026C51.013 10.4648 53.0095 12.5708 52.8756 15.0776L51.6706 37.6463C51.5464 39.9709 49.6254 41.7921 47.2975 41.7921H6.78131C4.43355 41.7921 2.50347 39.9407 2.40584 37.595L1.46647 15.0262Z" fill="#6DCEF8" stroke="#54B8E3" stroke-width="0.6"/>
</svg>
