<svg width="54" height="43" viewBox="0 0 54 43" fill="none" xmlns="http://www.w3.org/2000/svg">
<path d="M2.62256 5.21537C2.62256 2.81866 4.56548 0.875732 6.96219 0.875732H15.9514C16.2938 0.875732 16.5714 1.15329 16.5714 1.49568V11.1049H2.62256V5.21537Z" fill="#8D8D8D"/>
<path d="M2.62256 4.60781C2.62256 3.92304 3.17768 3.36792 3.86245 3.36792H46.9488C49.3455 3.36792 51.2885 5.31084 51.2885 7.70755V34.6753C51.2885 37.072 49.3455 39.0149 46.9488 39.0149H2.62256V4.60781Z" fill="#8D8D8D"/>
<path d="M16.2534 3.98265L16.2534 0.883237L19.77 3.97771L16.2534 3.98265Z" fill="#8D8D8D"/>
<rect x="2.61865" y="6.47729" width="48.6659" height="35.647" rx="4.33963" fill="#5E5F5F"/>
<path d="M1.99756 12.2023C1.99756 9.72217 4.00806 7.71167 6.48814 7.71167H47.7606C50.2813 7.71167 52.3083 9.78597 52.25 12.306L51.6947 36.337C51.6384 38.7761 49.645 40.7239 47.2054 40.7239H6.48813C4.00806 40.7239 1.99756 38.7134 1.99756 36.2333V12.2023Z" fill="#8D8D8D"/>
<path d="M1.73543 13.4944C1.71199 10.998 3.72925 8.96167 6.22581 8.96167H48.043C50.5809 8.96167 52.6145 11.0632 52.5312 13.5997L51.7414 37.6308C51.6618 40.0522 49.6759 41.9739 47.2532 41.9739H6.45146C3.98783 41.9739 1.98421 39.989 1.96108 37.5255L1.73543 13.4944Z" fill="#5E5F5F"/>
<path d="M1.33219 15.0262C1.22864 12.5383 3.21761 10.4648 5.70766 10.4648H48.3683C50.8787 10.4648 52.8752 12.5708 52.7414 15.0776L51.5363 37.6463C51.4122 39.9709 49.4911 41.7921 47.1632 41.7921H6.64703C4.29928 41.7921 2.36919 39.9407 2.27156 37.595L1.33219 15.0262Z" fill="#B5B5B5" stroke="#5E5F5F" stroke-width="0.6"/>
</svg>
