<svg width="136" height="171" viewBox="0 0 136 171" fill="none" xmlns="http://www.w3.org/2000/svg">
<path d="M117.912 170.302H18.2159C8.43713 170.302 0.566406 162.431 0.566406 152.652V17.6573C0.566406 7.87853 8.43713 0.0078125 18.2159 0.0078125H100.501L135.8 35.3068V152.652C135.561 162.431 127.69 170.302 117.912 170.302Z" fill="white"/>
<path d="M135.799 35.3391H117.911C108.132 35.3391 100.262 27.4684 100.262 17.6896C100.262 17.6896 100.534 0.355011 100.534 0.0102948C100.534 -0.334422 135.799 35.3391 135.799 35.3391Z" fill="#8F8F8F"/>
<rect x="40.8984" y="108.938" width="7.58376" height="2.41302" fill="white"/>
<rect x="73.9922" y="108.938" width="7.58376" height="2.41302" fill="white"/>
<rect x="0.566406" y="51.375" width="135.129" height="32.0586" fill="#D7D7D7"/>
<path d="M49.185 75.1641C49.0472 75.1641 48.93 75.1158 48.8334 75.0193C48.7369 74.9228 48.6887 74.8056 48.6887 74.6677V61.203C48.6887 61.0514 48.7369 60.9273 48.8334 60.8307C48.93 60.7342 49.0472 60.686 49.185 60.686H50.7776C50.9707 60.686 51.1086 60.7342 51.1913 60.8307C51.2878 60.9135 51.3499 60.9755 51.3774 61.0169L57.3342 70.2829V61.203C57.3342 61.0514 57.3755 60.9273 57.4582 60.8307C57.5548 60.7342 57.6789 60.686 57.8305 60.686H59.5679C59.7196 60.686 59.8437 60.7342 59.9402 60.8307C60.0367 60.9273 60.085 61.0514 60.085 61.203V74.647C60.085 74.7987 60.0367 74.9228 59.9402 75.0193C59.8437 75.1158 59.7265 75.1641 59.5886 75.1641H57.9753C57.7823 75.1641 57.6444 75.1158 57.5617 75.0193C57.4789 74.9228 57.4169 74.8607 57.3755 74.8331L51.4395 65.774V74.6677C51.4395 74.8056 51.3912 74.9228 51.2947 75.0193C51.1982 75.1158 51.0741 75.1641 50.9224 75.1641H49.185ZM67.697 75.3709C66.1664 75.3709 64.953 74.9297 64.0568 74.0472C63.1605 73.1647 62.6779 71.9099 62.609 70.2829C62.5952 70.145 62.5883 69.9726 62.5883 69.7658C62.5883 69.5452 62.5952 69.3728 62.609 69.2487C62.6641 68.2146 62.8985 67.3183 63.3122 66.5599C63.7396 65.8016 64.3256 65.2224 65.0702 64.8226C65.8148 64.4089 66.6904 64.2021 67.697 64.2021C68.8139 64.2021 69.7515 64.4365 70.5099 64.9053C71.2682 65.3603 71.8405 66.0015 72.2266 66.8288C72.6126 67.6423 72.8057 68.5869 72.8057 69.6624V70.0967C72.8057 70.2346 72.7574 70.3518 72.6609 70.4483C72.5644 70.5449 72.4403 70.5931 72.2886 70.5931H65.4218C65.4218 70.5931 65.4218 70.6138 65.4218 70.6552C65.4218 70.6965 65.4218 70.731 65.4218 70.7586C65.4356 71.2412 65.5253 71.6893 65.6907 72.103C65.87 72.5029 66.1251 72.8269 66.456 73.0751C66.8007 73.3233 67.2075 73.4474 67.6763 73.4474C68.0624 73.4474 68.3864 73.3922 68.6484 73.2819C68.9104 73.1578 69.1241 73.0199 69.2896 72.8682C69.455 72.7166 69.5722 72.5925 69.6412 72.496C69.7653 72.3305 69.8618 72.234 69.9307 72.2064C70.0135 72.165 70.1307 72.1443 70.2824 72.1443H72.0611C72.199 72.1443 72.3093 72.1857 72.392 72.2684C72.4885 72.3512 72.5299 72.4546 72.5161 72.5787C72.5023 72.7993 72.3851 73.0682 72.1645 73.3853C71.9577 73.7025 71.6543 74.0127 71.2545 74.3161C70.8546 74.6194 70.3513 74.8745 69.7446 75.0813C69.1517 75.2744 68.4691 75.3709 67.697 75.3709ZM65.4218 68.8557H69.9928V68.7937C69.9928 68.2559 69.9032 67.7871 69.7239 67.3873C69.5447 66.9874 69.2827 66.6702 68.938 66.4358C68.5932 66.2014 68.1796 66.0842 67.697 66.0842C67.2144 66.0842 66.8007 66.2014 66.456 66.4358C66.1113 66.6702 65.8493 66.9874 65.67 67.3873C65.5046 67.7871 65.4218 68.2559 65.4218 68.7937V68.8557ZM77.6352 75.1641C77.4421 75.1641 77.2973 75.1158 77.2008 75.0193C77.1043 74.9228 77.0216 74.7987 76.9526 74.647L73.9949 65.0501C73.9812 64.9811 73.9743 64.9191 73.9743 64.8639C73.9743 64.7398 74.0156 64.6364 74.0984 64.5537C74.1949 64.4572 74.2983 64.4089 74.4086 64.4089H75.9392C76.1046 64.4089 76.2356 64.4572 76.3321 64.5537C76.4286 64.6364 76.4838 64.7191 76.4976 64.8019L78.5245 71.648L80.6756 64.8639C80.7031 64.7674 80.7652 64.6709 80.8617 64.5744C80.9582 64.4641 81.103 64.4089 81.296 64.4089H82.3302C82.5232 64.4089 82.668 64.4641 82.7645 64.5744C82.8611 64.6709 82.9231 64.7674 82.9507 64.8639L85.1017 71.648L87.1287 64.8019C87.1424 64.7191 87.1907 64.6364 87.2734 64.5537C87.37 64.4572 87.5009 64.4089 87.6664 64.4089H89.197C89.3211 64.4089 89.4245 64.4572 89.5072 64.5537C89.6037 64.6364 89.652 64.7398 89.652 64.8639C89.652 64.9191 89.6382 64.9811 89.6106 65.0501L86.6529 74.647C86.6116 74.7987 86.5357 74.9228 86.4254 75.0193C86.3289 75.1158 86.1841 75.1641 85.9911 75.1641H84.6467C84.4537 75.1641 84.302 75.1158 84.1917 75.0193C84.0814 74.9228 84.0055 74.7987 83.9642 74.647L81.8131 68.1112L79.6621 74.647C79.6069 74.7987 79.5242 74.9228 79.4139 75.0193C79.3174 75.1158 79.1657 75.1641 78.9589 75.1641H77.6352Z" fill="#575757"/>
</svg>
