<svg width="136" height="171" viewBox="0 0 136 171" fill="none" xmlns="http://www.w3.org/2000/svg">
<path d="M117.974 170.302H18.2784C8.49963 170.302 0.628906 162.431 0.628906 152.652V17.6573C0.628906 7.87853 8.49963 0.0078125 18.2784 0.0078125H100.563L135.862 35.3068V152.652C135.624 162.431 127.753 170.302 117.974 170.302Z" fill="white"/>
<path d="M135.861 35.3391H117.974C108.195 35.3391 100.324 27.4684 100.324 17.6896C100.324 17.6896 100.596 0.355011 100.596 0.0102948C100.596 -0.334422 135.861 35.3391 135.861 35.3391Z" fill="#5DA2D7"/>
<rect x="34.4121" y="97.9062" width="23.7854" height="2.0683" fill="#D7D7D7"/>
<rect x="34.4121" y="118.25" width="37.9188" height="2.0683" fill="#D7D7D7"/>
<rect x="61.6445" y="97.9062" width="40.3318" height="2.0683" fill="#D7D7D7"/>
<rect x="34.4121" y="138.586" width="27.2326" height="2.0683" fill="#D7D7D7"/>
<rect x="74.7422" y="118.25" width="27.2326" height="2.0683" fill="#D7D7D7"/>
<rect x="65.0898" y="138.586" width="36.8847" height="2.0683" fill="#D7D7D7"/>
<rect x="34.4121" y="108.25" width="67.5645" height="2.0683" fill="#D7D7D7"/>
<rect x="34.4121" y="128.586" width="63.4279" height="2.0683" fill="#D7D7D7"/>
<rect x="34.4121" y="148.93" width="67.5645" height="2.0683" fill="#D7D7D7"/>
<rect x="0.628906" y="51.375" width="135.129" height="32.0586" fill="#B2D8F4"/>
<path d="M36.5218 75.1641C36.3839 75.1641 36.2667 75.1158 36.1702 75.0193C36.0736 74.9228 36.0254 74.8056 36.0254 74.6677V61.203C36.0254 61.0514 36.0736 60.9273 36.1702 60.8307C36.2667 60.7342 36.3839 60.686 36.5218 60.686H38.1144C38.3074 60.686 38.4453 60.7342 38.528 60.8307C38.6245 60.9135 38.6866 60.9755 38.7142 61.0169L44.6709 70.2829V61.203C44.6709 61.0514 44.7122 60.9273 44.795 60.8307C44.8915 60.7342 45.0156 60.686 45.1673 60.686H46.9046C47.0563 60.686 47.1804 60.7342 47.2769 60.8307C47.3735 60.9273 47.4217 61.0514 47.4217 61.203V74.647C47.4217 74.7987 47.3735 74.9228 47.2769 75.0193C47.1804 75.1158 47.0632 75.1641 46.9253 75.1641H45.312C45.119 75.1641 44.9811 75.1158 44.8984 75.0193C44.8157 74.9228 44.7536 74.8607 44.7122 74.8331L38.7762 65.774V74.6677C38.7762 74.8056 38.728 74.9228 38.6314 75.0193C38.5349 75.1158 38.4108 75.1641 38.2591 75.1641H36.5218ZM56.2126 75.3709C54.9854 75.3709 53.9306 75.171 53.0481 74.7711C52.1657 74.3574 51.4762 73.73 50.9798 72.8889C50.4834 72.034 50.2146 70.9723 50.1732 69.7038C50.1594 69.1108 50.1525 68.5248 50.1525 67.9457C50.1525 67.3666 50.1594 66.7737 50.1732 66.167C50.2146 64.9122 50.4903 63.8643 51.0005 63.0231C51.5107 62.182 52.207 61.5478 53.0895 61.1203C53.9858 60.6929 55.0268 60.4791 56.2126 60.4791C57.3985 60.4791 58.4395 60.6929 59.3358 61.1203C60.232 61.5478 60.9353 62.182 61.4454 63.0231C61.9556 63.8643 62.2314 64.9122 62.2728 66.167C62.3003 66.7737 62.3141 67.3666 62.3141 67.9457C62.3141 68.5248 62.3003 69.1108 62.2728 69.7038C62.2314 70.9723 61.9625 72.034 61.4661 72.8889C60.9697 73.73 60.2734 74.3574 59.3771 74.7711C58.4947 75.171 57.4398 75.3709 56.2126 75.3709ZM56.2126 72.9923C57.1089 72.9923 57.8397 72.7304 58.405 72.2064C58.9704 71.6686 59.2737 70.7999 59.3151 69.6003C59.3427 68.9936 59.3564 68.4352 59.3564 67.925C59.3564 67.401 59.3427 66.8426 59.3151 66.2497C59.2875 65.4499 59.1358 64.8019 58.8601 64.3055C58.5981 63.7953 58.2396 63.4299 57.7845 63.2093C57.3295 62.9749 56.8055 62.8577 56.2126 62.8577C55.6335 62.8577 55.1164 62.9749 54.6614 63.2093C54.2064 63.4299 53.841 63.7953 53.5652 64.3055C53.3032 64.8019 53.1584 65.4499 53.1309 66.2497C53.1171 66.8426 53.1102 67.401 53.1102 67.925C53.1102 68.4352 53.1171 68.9936 53.1309 69.6003C53.1722 70.7999 53.4756 71.6686 54.0409 72.2064C54.6063 72.7304 55.3302 72.9923 56.2126 72.9923ZM68.4491 75.1641C68.3112 75.1641 68.194 75.1158 68.0974 75.0193C68.0009 74.9228 67.9527 74.8056 67.9527 74.6677V63.23H64.1263C63.9884 63.23 63.8712 63.1817 63.7747 63.0852C63.6782 62.9887 63.6299 62.8715 63.6299 62.7336V61.203C63.6299 61.0514 63.6782 60.9273 63.7747 60.8307C63.8712 60.7342 63.9884 60.686 64.1263 60.686H74.6746C74.8263 60.686 74.9504 60.7342 75.0469 60.8307C75.1434 60.9273 75.1917 61.0514 75.1917 61.203V62.7336C75.1917 62.8715 75.1434 62.9887 75.0469 63.0852C74.9504 63.1817 74.8263 63.23 74.6746 63.23H70.869V74.6677C70.869 74.8056 70.8207 74.9228 70.7242 75.0193C70.6277 75.1158 70.5036 75.1641 70.3519 75.1641H68.4491ZM77.7868 75.1641C77.6489 75.1641 77.5317 75.1158 77.4352 75.0193C77.3386 74.9228 77.2904 74.8056 77.2904 74.6677V61.203C77.2904 61.0514 77.3386 60.9273 77.4352 60.8307C77.5317 60.7342 77.6489 60.686 77.7868 60.686H86.8873C87.039 60.686 87.1631 60.7342 87.2596 60.8307C87.3561 60.9273 87.4044 61.0514 87.4044 61.203V62.5681C87.4044 62.706 87.3561 62.8232 87.2596 62.9197C87.1631 63.0162 87.039 63.0645 86.8873 63.0645H80.0826V66.7254H86.4323C86.5839 66.7254 86.708 66.7737 86.8046 66.8702C86.9011 66.9529 86.9493 67.0701 86.9493 67.2218V68.5041C86.9493 68.6558 86.9011 68.7799 86.8046 68.8764C86.708 68.9592 86.5839 69.0005 86.4323 69.0005H80.0826V72.7855H87.0528C87.2044 72.7855 87.3285 72.8338 87.4251 72.9303C87.5216 73.0268 87.5698 73.1509 87.5698 73.3026V74.6677C87.5698 74.8056 87.5216 74.9228 87.4251 75.0193C87.3285 75.1158 87.2044 75.1641 87.0528 75.1641H77.7868ZM95.1826 75.3709C93.9003 75.3709 92.8248 75.1847 91.9561 74.8125C91.1012 74.4264 90.4462 73.93 89.9912 73.3233C89.55 72.7028 89.3156 72.0547 89.288 71.3791C89.288 71.255 89.3293 71.1516 89.4121 71.0688C89.4948 70.9861 89.5982 70.9447 89.7223 70.9447H91.5631C91.7424 70.9447 91.8734 70.9861 91.9561 71.0688C92.0526 71.1378 92.1353 71.2274 92.2043 71.3377C92.287 71.5997 92.4456 71.8617 92.68 72.1237C92.9144 72.3719 93.2315 72.5787 93.6314 72.7442C94.0451 72.9096 94.5621 72.9923 95.1826 72.9923C96.1754 72.9923 96.9131 72.8269 97.3957 72.496C97.8921 72.165 98.1403 71.7169 98.1403 71.1516C98.1403 70.7517 98.0093 70.4346 97.7473 70.2001C97.4853 69.9519 97.0786 69.7313 96.527 69.5383C95.9893 69.3315 95.2723 69.1177 94.376 68.8971C93.3418 68.6489 92.4732 68.3525 91.7699 68.0077C91.0805 67.6492 90.5565 67.2011 90.198 66.6634C89.8533 66.1256 89.681 65.4431 89.681 64.6157C89.681 63.816 89.8947 63.1059 90.3221 62.4854C90.7634 61.8649 91.3839 61.3754 92.1836 61.0169C92.9971 60.6584 93.9623 60.4791 95.0792 60.4791C95.9755 60.4791 96.7683 60.6032 97.4578 60.8514C98.1472 61.0858 98.7194 61.403 99.1744 61.8028C99.6295 62.1889 99.9742 62.6095 100.209 63.0645C100.457 63.5057 100.588 63.9401 100.602 64.3675C100.602 64.4778 100.56 64.5813 100.477 64.6778C100.409 64.7605 100.305 64.8019 100.167 64.8019H98.2437C98.1334 64.8019 98.0231 64.7743 97.9128 64.7191C97.8025 64.664 97.7129 64.5606 97.6439 64.4089C97.5612 63.9815 97.2923 63.6161 96.8373 63.3127C96.3822 63.0094 95.7962 62.8577 95.0792 62.8577C94.3346 62.8577 93.7348 62.9956 93.2798 63.2713C92.8248 63.5471 92.5973 63.9746 92.5973 64.5537C92.5973 64.9398 92.7076 65.2638 92.9282 65.5258C93.1626 65.774 93.528 65.9946 94.0244 66.1876C94.5346 66.3807 95.2033 66.5875 96.0306 66.8081C97.2027 67.0701 98.161 67.3735 98.9056 67.7182C99.6502 68.0629 100.195 68.5041 100.54 69.0419C100.884 69.5659 101.057 70.2346 101.057 71.0481C101.057 71.9582 100.808 72.7373 100.312 73.3853C99.8294 74.0196 99.1469 74.5091 98.2644 74.8538C97.3819 75.1985 96.3547 75.3709 95.1826 75.3709Z" fill="#575757"/>
</svg>
