<svg width="136" height="171" viewBox="0 0 136 171" fill="none" xmlns="http://www.w3.org/2000/svg">
<path d="M117.725 170.302H18.0294C8.2506 170.302 0.379883 162.431 0.379883 152.652V17.6573C0.379883 7.87853 8.2506 0.0078125 18.0294 0.0078125H100.314L135.613 35.3068V152.652C135.375 162.431 127.504 170.302 117.725 170.302Z" fill="white"/>
<path d="M135.612 35.3391H117.725C107.946 35.3391 100.075 27.4684 100.075 17.6896C100.075 17.6896 100.347 0.355011 100.347 0.0102948C100.347 -0.334422 135.612 35.3391 135.612 35.3391Z" fill="#E55A5A"/>
<rect x="40.7119" y="108.938" width="7.58376" height="2.41302" fill="white"/>
<rect x="73.8047" y="108.938" width="7.58376" height="2.41302" fill="white"/>
<path d="M33.8174 107.213C33.8174 105.309 35.3607 103.766 37.2645 103.766H66.9102V146.51H37.2645C35.3607 146.51 33.8174 144.967 33.8174 143.063V107.213Z" fill="#D7D7D7"/>
<path d="M67.9443 103.766H97.59C99.4938 103.766 101.037 105.309 101.037 107.213V143.063C101.037 144.967 99.4938 146.51 97.59 146.51H67.9443V103.766Z" fill="#D7D7D7"/>
<rect x="40.7119" y="121.695" width="12.0651" height="0.689433" fill="white"/>
<rect x="73.8047" y="121.695" width="12.0651" height="0.689433" fill="white"/>
<rect x="40.7119" y="110.32" width="21.3724" height="0.689433" fill="white"/>
<rect x="73.8047" y="110.32" width="21.3724" height="0.689433" fill="white"/>
<rect x="40.7119" y="133.07" width="8.61792" height="0.689433" fill="white"/>
<rect x="73.8047" y="133.07" width="8.61792" height="0.689433" fill="white"/>
<rect x="53.4658" y="121.695" width="8.61792" height="0.689433" fill="white"/>
<rect x="86.5586" y="121.695" width="8.61792" height="0.689433" fill="white"/>
<rect x="50.3633" y="133.07" width="11.7204" height="0.689433" fill="white"/>
<rect x="83.4561" y="133.07" width="11.7204" height="0.689433" fill="white"/>
<rect x="40.7119" y="116.18" width="21.3724" height="0.689433" fill="white"/>
<rect x="73.8047" y="116.18" width="21.3724" height="0.689433" fill="white"/>
<rect x="40.7119" y="127.555" width="19.9936" height="0.689433" fill="white"/>
<rect x="73.8047" y="127.555" width="19.9936" height="0.689433" fill="white"/>
<rect x="40.7119" y="138.93" width="21.3724" height="0.689433" fill="white"/>
<rect x="73.8047" y="138.93" width="21.3724" height="0.689433" fill="white"/>
<rect x="0.379883" y="51.375" width="135.129" height="32.0586" fill="#F8B1B1"/>
<path d="M49.5722 75.1641C49.4343 75.1641 49.3171 75.1158 49.2205 75.0193C49.124 74.9228 49.0758 74.8056 49.0758 74.6677V61.203C49.0758 61.0514 49.124 60.9273 49.2205 60.8307C49.3171 60.7342 49.4343 60.686 49.5722 60.686H55.1152C56.1907 60.686 57.1283 60.8583 57.9281 61.203C58.7278 61.534 59.3483 62.0441 59.7896 62.7336C60.2308 63.4092 60.4514 64.2572 60.4514 65.2776C60.4514 66.3117 60.2308 67.1666 59.7896 67.8423C59.3483 68.5041 58.7278 69.0005 57.9281 69.3315C57.1283 69.6624 56.1907 69.8278 55.1152 69.8278H52.0334V74.6677C52.0334 74.8056 51.9852 74.9228 51.8886 75.0193C51.8059 75.1158 51.6887 75.1641 51.537 75.1641H49.5722ZM51.9921 67.532H55.0118C55.8115 67.532 56.4251 67.3459 56.8526 66.9736C57.28 66.5875 57.4937 66.0222 57.4937 65.2776C57.4937 64.5882 57.2938 64.0366 56.8939 63.6229C56.4941 63.1955 55.8667 62.9818 55.0118 62.9818H51.9921V67.532ZM63.206 75.1641C63.0681 75.1641 62.9509 75.1158 62.8544 75.0193C62.7578 74.9228 62.7096 74.8056 62.7096 74.6677V61.203C62.7096 61.0514 62.7578 60.9273 62.8544 60.8307C62.9509 60.7342 63.0681 60.686 63.206 60.686H68.2526C69.6453 60.686 70.7897 60.8997 71.686 61.3271C72.596 61.7546 73.2786 62.3889 73.7336 63.23C74.2024 64.0711 74.4437 65.0983 74.4575 66.3117C74.4851 66.9184 74.4989 67.4562 74.4989 67.925C74.4989 68.3938 74.4851 68.9247 74.4575 69.5176C74.4299 70.8 74.1955 71.8617 73.7543 72.7028C73.3131 73.5301 72.6443 74.1506 71.748 74.5643C70.8656 74.9641 69.7349 75.1641 68.356 75.1641H63.206ZM65.5845 72.7855H68.2526C69.0248 72.7855 69.6522 72.6752 70.1348 72.4546C70.6174 72.234 70.969 71.8824 71.1896 71.3998C71.424 70.9034 71.5481 70.2553 71.5619 69.4556C71.5757 69.0419 71.5826 68.6834 71.5826 68.38C71.5964 68.0629 71.5964 67.7527 71.5826 67.4493C71.5826 67.1322 71.5757 66.7737 71.5619 66.3738C71.5343 65.2431 71.2517 64.4089 70.7139 63.8711C70.1761 63.3334 69.3212 63.0645 68.1492 63.0645H65.5845V72.7855ZM77.7487 75.1641C77.6108 75.1641 77.4936 75.1158 77.3971 75.0193C77.3006 74.9228 77.2523 74.8056 77.2523 74.6677V61.203C77.2523 61.0514 77.3006 60.9273 77.3971 60.8307C77.4936 60.7342 77.6108 60.686 77.7487 60.686H86.7251C86.8768 60.686 87.0009 60.7342 87.0974 60.8307C87.1939 60.9273 87.2422 61.0514 87.2422 61.203V62.6508C87.2422 62.8025 87.1939 62.9266 87.0974 63.0231C87.0009 63.1059 86.8768 63.1472 86.7251 63.1472H80.0859V67.077H86.3115C86.4631 67.077 86.5872 67.1253 86.6838 67.2218C86.7803 67.3183 86.8285 67.4424 86.8285 67.5941V69.0419C86.8285 69.1798 86.7803 69.297 86.6838 69.3935C86.5872 69.49 86.4631 69.5383 86.3115 69.5383H80.0859V74.6677C80.0859 74.8056 80.0376 74.9228 79.9411 75.0193C79.8446 75.1158 79.7205 75.1641 79.5688 75.1641H77.7487Z" fill="#575757"/>
</svg>
