<svg width="9" height="9" viewBox="0 0 9 9" fill="none" xmlns="http://www.w3.org/2000/svg">
<path d="M7.93142 4.06719V6.20052C7.93142 7.62274 7.57587 7.9783 6.15365 7.9783H2.59809C1.17587 7.9783 0.820312 7.62274 0.820312 6.20052V2.64497C0.820312 1.22274 1.17587 0.867188 2.59809 0.867188H3.13142C3.66476 0.867188 3.78209 1.02363 3.98476 1.29385L4.51809 2.00497C4.6532 2.18274 4.73142 2.28941 5.08698 2.28941H6.15365C7.57587 2.28941 7.93142 2.64497 7.93142 4.06719Z" stroke="#787486" stroke-width="0.533333" stroke-miterlimit="10"/>
<path d="M3.12891 0.867188H6.32891C7.04002 0.867188 7.39557 1.22274 7.39557 1.93385V2.42452" stroke="#787486" stroke-width="0.533333" stroke-miterlimit="10" stroke-linecap="round" stroke-linejoin="round"/>
<path d="M5.26215 5.48438H3.48438" stroke="#787486" stroke-width="0.533333" stroke-miterlimit="10" stroke-linecap="round" stroke-linejoin="round"/>
</svg>
