<svg width="22" height="22" viewBox="0 0 22 22" fill="none" xmlns="http://www.w3.org/2000/svg">
<rect y="10.6094" width="15" height="15" rx="7.5" transform="rotate(-45 0 10.6094)" fill="#A2D6C7"/>
<path d="M11.7764 7.23938C11.5721 7.23938 11.4064 7.40503 11.4064 7.60938C11.4064 7.81372 11.5721 7.97937 11.7764 7.97937V7.23938ZM13.92 7.60938H14.29C14.29 7.40503 14.1243 7.23938 13.92 7.23938V7.60938ZM13.55 9.75282C13.55 9.95717 13.7157 10.1228 13.92 10.1228C14.1243 10.1228 14.29 9.95717 14.29 9.75282H13.55ZM11.4191 10.1101L11.1575 9.84843L11.1575 9.84844L11.4191 10.1101ZM10.1436 13.8994C10.3479 13.8994 10.5136 13.7337 10.5136 13.5294C10.5136 13.325 10.3479 13.1594 10.1436 13.1594V13.8994ZM8 13.5294H7.63C7.63 13.7337 7.79565 13.8994 8 13.8994V13.5294ZM8.37 11.3859C8.37 11.1816 8.20435 11.0159 8 11.0159C7.79565 11.0159 7.63 11.1816 7.63 11.3859H8.37ZM11.7764 7.97937H13.92V7.23938H11.7764V7.97937ZM13.55 7.60938V9.75282H14.29V7.60938H13.55ZM13.6584 7.34774L11.1575 9.84843L11.6808 10.3717L14.1816 7.87101L13.6584 7.34774ZM10.1436 13.1594H8V13.8994H10.1436V13.1594ZM8.37 13.5294V11.3859H7.63V13.5294H8.37ZM8.26164 13.791L11.6808 10.3717L11.1575 9.84844L7.73836 13.2678L8.26164 13.791Z" fill="#047857"/>
</svg>
