<svg width="23" height="23" viewBox="0 0 23 23" fill="none" xmlns="http://www.w3.org/2000/svg">
<rect x="0.894531" y="11.5" width="15" height="15" rx="7.5" transform="rotate(-45 0.894531 11.5)" fill="#A2D6C7"/>
<path d="M13.2365 9.05727L11.5652 10.7286L9.89381 9.05727C9.68296 8.84642 9.33327 8.84642 9.12242 9.05727C8.91157 9.26811 8.91157 9.61781 9.12242 9.82866L10.7938 11.5L9.12242 13.1713C8.91157 13.3822 8.91157 13.7319 9.12242 13.9427C9.33327 14.1536 9.68296 14.1536 9.89381 13.9427L11.5652 12.2714L13.2365 13.9427C13.4473 14.1536 13.797 14.1536 14.0079 13.9427C14.2187 13.7319 14.2187 13.3822 14.0079 13.1713L12.3365 11.5L14.0079 9.82866C14.2187 9.61781 14.2187 9.26811 14.0079 9.05727C13.797 8.84642 13.4473 8.84642 13.2365 9.05727Z" fill="#047857"/>
</svg>
