<svg width="28" height="24" viewBox="0 0 28 24" fill="none" xmlns="http://www.w3.org/2000/svg">
<path d="M27.1933 22.896L25.9513 19.1703C25.8805 18.9578 25.9036 18.7293 26.0062 18.5302C26.9396 16.7168 27.325 14.576 26.9212 12.3192C26.3021 8.85977 23.7688 5.98517 20.4832 4.88281C21.331 6.93044 21.5895 9.20693 21.166 11.4652C20.3055 16.0551 16.6301 19.6943 12.0205 20.521C11.4238 20.628 10.821 20.6802 10.2227 20.6954C11.6226 22.2058 13.4913 23.2795 15.5758 23.6534C17.8186 24.0556 19.9495 23.6812 21.7573 22.7618C21.9557 22.661 22.1826 22.6384 22.3938 22.7089L26.1338 23.9554C26.7886 24.1738 27.4116 23.5507 27.1933 22.896Z" fill="#9A78F7"/>
<path fill-rule="evenodd" clip-rule="evenodd" d="M20.004 9.37504C20.004 14.5527 15.8066 18.7501 10.6289 18.7501C5.45125 18.7501 1.25391 14.5527 1.25391 9.37504C1.25391 4.19735 5.45125 0 10.6289 0C15.8066 0 20.004 4.19735 20.004 9.37504ZM3.5712 12.8396L7.15267 5.29876L9.25942 9.57867L7.99537 10.292L7.15267 8.66154L5.78329 11.5148L3.5712 12.8396ZM9.57544 10.3939L10.9448 13.2472H9.36476L8.41672 11.2091L5.2566 13.2472H3.5712L17.4757 5.29876L11.4715 9.47676C11.5883 10.9017 13.0516 11.6473 13.7889 11.7186C14.3156 11.7696 14.8786 11.5595 15.5797 11.0053L16.5277 12.1262C15.4339 13.2302 13.8943 13.2687 13.7606 13.2414C12.9462 13.2472 11.2884 12.7367 9.99679 10.1901L9.57544 10.3939ZM14.8396 7.37969C15.4845 7.59861 15.7696 7.74668 16.1572 8.27122L16.9736 6.99061C16.4133 6.58265 16.2081 6.53687 16.1569 6.53597L16.1571 6.53588L16.1568 6.53597C16.1466 6.5358 16.1425 6.53744 16.1431 6.53831C16.1436 6.53917 16.1488 6.53926 16.1568 6.53597L16.1569 6.53597L14.8396 7.37969ZM11.4824 8.27376L9.70564 9.31538C9.77236 6.4618 12.4874 4.69396 15.3506 6.08462L13.7831 7.02168C12.5824 7.03464 12.059 7.27129 11.4824 8.27376Z" fill="#9A78F7"/>
<path d="M2.37333 13.7578C2.37333 13.7578 0.459277 19.0837 1.1505 18.9548C1.25487 19.4395 3.45953 18.594 6.34753 17.6301L2.37333 13.7578Z" fill="#9A78F7" stroke="#787486" stroke-width="0.203805"/>
</svg>
