<svg width="13" height="14" viewBox="0 0 13 14" fill="none" xmlns="http://www.w3.org/2000/svg">
<path d="M3.80104 6.59792H2.73437C1.44371 6.59792 0.734375 5.88858 0.734375 4.59792V3.53125C0.734375 2.24058 1.44371 1.53125 2.73437 1.53125H3.80104C5.09171 1.53125 5.80104 2.24058 5.80104 3.53125V4.59792C5.80104 5.88858 5.09171 6.59792 3.80104 6.59792ZM2.73437 2.33125C1.89171 2.33125 1.53437 2.68858 1.53437 3.53125V4.59792C1.53437 5.44058 1.89171 5.79792 2.73437 5.79792H3.80104C4.64371 5.79792 5.00104 5.44058 5.00104 4.59792V3.53125C5.00104 2.68858 4.64371 2.33125 3.80104 2.33125H2.73437Z" fill="#787486"/>
<path d="M10.2014 6.59792H9.13477C7.8441 6.59792 7.13477 5.88858 7.13477 4.59792V3.53125C7.13477 2.24058 7.8441 1.53125 9.13477 1.53125H10.2014C11.4921 1.53125 12.2014 2.24058 12.2014 3.53125V4.59792C12.2014 5.88858 11.4921 6.59792 10.2014 6.59792ZM9.13477 2.33125C8.2921 2.33125 7.93477 2.68858 7.93477 3.53125V4.59792C7.93477 5.44058 8.2921 5.79792 9.13477 5.79792H10.2014C11.0441 5.79792 11.4014 5.44058 11.4014 4.59792V3.53125C11.4014 2.68858 11.0441 2.33125 10.2014 2.33125H9.13477Z" fill="#787486"/>
<path d="M10.2014 13.0042H9.13477C7.8441 13.0042 7.13477 12.2948 7.13477 11.0042V9.9375C7.13477 8.64683 7.8441 7.9375 9.13477 7.9375H10.2014C11.4921 7.9375 12.2014 8.64683 12.2014 9.9375V11.0042C12.2014 12.2948 11.4921 13.0042 10.2014 13.0042ZM9.13477 8.7375C8.2921 8.7375 7.93477 9.09483 7.93477 9.9375V11.0042C7.93477 11.8468 8.2921 12.2042 9.13477 12.2042H10.2014C11.0441 12.2042 11.4014 11.8468 11.4014 11.0042V9.9375C11.4014 9.09483 11.0441 8.7375 10.2014 8.7375H9.13477Z" fill="#787486"/>
<path d="M3.80104 13.0042H2.73437C1.44371 13.0042 0.734375 12.2948 0.734375 11.0042V9.9375C0.734375 8.64683 1.44371 7.9375 2.73437 7.9375H3.80104C5.09171 7.9375 5.80104 8.64683 5.80104 9.9375V11.0042C5.80104 12.2948 5.09171 13.0042 3.80104 13.0042ZM2.73437 8.7375C1.89171 8.7375 1.53437 9.09483 1.53437 9.9375V11.0042C1.53437 11.8468 1.89171 12.2042 2.73437 12.2042H3.80104C4.64371 12.2042 5.00104 11.8468 5.00104 11.0042V9.9375C5.00104 9.09483 4.64371 8.7375 3.80104 8.7375H2.73437Z" fill="#787486"/>
</svg>
