<svg width="26" height="26" viewBox="0 0 26 26" fill="none" xmlns="http://www.w3.org/2000/svg">
<path d="M0 10.4C0 5.49739 -1.72191e-07 3.04609 1.69227 1.52304C3.38455 1.54972e-07 6.10821 0 11.5556 0H14.4444C19.8917 0 22.6155 1.54972e-07 24.3077 1.52304C26 3.04609 26 5.49739 26 10.4V15.6C26 20.5026 26 22.954 24.3077 24.4769C22.6155 26 19.8917 26 14.4444 26H11.5556C6.10821 26 3.38455 26 1.69227 24.4769C-1.72191e-07 22.954 0 20.5026 0 15.6V10.4Z" fill="white"/>
<rect x="6" y="7" width="15" height="2" rx="1" fill="#9A78F7"/>
<rect x="6" y="12" width="13" height="2" rx="1" fill="#9A78F7"/>
<rect x="6" y="17" width="10" height="2" rx="1" fill="#9A78F7"/>
</svg>
