<svg width="30" height="30" viewBox="0 0 30 30" fill="none" xmlns="http://www.w3.org/2000/svg">
<path d="M15.0262 3.63281C10.8887 3.63281 7.52621 6.99531 7.52621 11.1328V14.7453C7.52621 15.5078 7.20121 16.6703 6.81371 17.3203L5.37621 19.7078C4.48871 21.1828 5.10121 22.8203 6.72621 23.3703C12.1137 25.1703 17.9262 25.1703 23.3137 23.3703C24.8262 22.8703 25.4887 21.0828 24.6637 19.7078L23.2262 17.3203C22.8512 16.6703 22.5262 15.5078 22.5262 14.7453V11.1328C22.5262 7.00781 19.1512 3.63281 15.0262 3.63281Z" stroke="#553C9A" stroke-width="1.875" stroke-miterlimit="10" stroke-linecap="round"/>
<path d="M17.3379 3.99687C16.9504 3.88437 16.5504 3.79687 16.1379 3.74687C14.9379 3.59687 13.7879 3.68437 12.7129 3.99687C13.0754 3.07187 13.9754 2.42188 15.0254 2.42188C16.0754 2.42188 16.9754 3.07187 17.3379 3.99687Z" stroke="#553C9A" stroke-width="1.875" stroke-miterlimit="10" stroke-linecap="round" stroke-linejoin="round"/>
<path d="M18.7734 23.8281C18.7734 25.8906 17.0859 27.5781 15.0234 27.5781C13.9984 27.5781 13.0484 27.1531 12.3734 26.4781C11.6984 25.8031 11.2734 24.8531 11.2734 23.8281" stroke="#553C9A" stroke-width="1.875" stroke-miterlimit="10"/>
</svg>
