<svg width="30" height="30" viewBox="0 0 30 30" fill="none" xmlns="http://www.w3.org/2000/svg">
<path d="M21.25 23.0391H16.25L10.6875 26.7391C9.86248 27.2891 8.75 26.7016 8.75 25.7016V23.0391C5 23.0391 2.5 20.5391 2.5 16.7891V9.28906C2.5 5.53906 5 3.03906 8.75 3.03906H21.25C25 3.03906 27.5 5.53906 27.5 9.28906V16.7891C27.5 20.5391 25 23.0391 21.25 23.0391Z" stroke="#553C9A" stroke-width="1.875" stroke-miterlimit="10" stroke-linecap="round" stroke-linejoin="round"/>
<path d="M14.9988 14.1953V13.9329C14.9988 13.0829 15.5238 12.6328 16.0488 12.2703C16.5613 11.9203 17.0738 11.4704 17.0738 10.6454C17.0738 9.49536 16.1488 8.57031 14.9988 8.57031C13.8488 8.57031 12.9238 9.49536 12.9238 10.6454" stroke="#553C9A" stroke-width="1.875" stroke-linecap="round" stroke-linejoin="round"/>
<path d="M14.9944 17.1875H15.0056" stroke="#553C9A" stroke-width="1.875" stroke-linecap="round" stroke-linejoin="round"/>
</svg>
